<svg width="80" height="80" viewBox="0 0 80 80" fill="none" xmlns="http://www.w3.org/2000/svg">
<path d="M32.2699 37.5328C32.0316 37.5328 31.7923 37.4783 31.5712 37.3678C31.0418 37.1031 30.7076 36.5621 30.7076 35.9703V32.6864H28.822C27.0516 32.6864 25.6113 31.2463 25.6113 29.476V12.3835C25.6113 10.6128 27.052 9.17236 28.8226 9.17236H76.789C78.5596 9.17236 80.0001 10.6128 80.0001 12.3835V29.4761C80.0001 31.2464 78.5598 32.6866 76.7894 32.6866H39.254L33.2076 37.2206C32.932 37.4271 32.6018 37.5328 32.2699 37.5328V37.5328ZM28.8226 12.2974C28.7749 12.2974 28.7363 12.336 28.7363 12.3835V29.4761C28.7363 29.5233 28.7748 29.5616 28.822 29.5616H32.2701C33.1329 29.5616 33.8326 30.2611 33.8326 31.1241V32.8456L37.7957 29.8738C38.066 29.671 38.3951 29.5614 38.733 29.5614H76.7893C76.8365 29.5614 76.8749 29.5231 76.8749 29.476V12.3835C76.8749 12.336 76.8363 12.2974 76.7888 12.2974H28.8226Z" fill="#1E959B"/>
<path d="M68.7954 18.3521H36.8174C35.9546 18.3521 35.2549 17.6524 35.2549 16.7896C35.2549 15.9267 35.9546 15.2271 36.8174 15.2271H68.7954C69.6582 15.2271 70.3579 15.9267 70.3579 16.7896C70.3579 17.6525 69.6583 18.3521 68.7954 18.3521Z" fill="#1E959B"/>
<path d="M68.7951 25.6969H63.167C62.3042 25.6969 61.6045 24.9972 61.6045 24.1344C61.6045 23.2714 62.3042 22.5719 63.167 22.5719H68.7951C69.6579 22.5719 70.3576 23.2714 70.3576 24.1344C70.3576 24.9972 69.6581 25.6969 68.7951 25.6969Z" fill="#1E959B"/>
<path d="M55.3556 25.6969C54.7026 25.6969 54.1049 25.2736 53.8846 24.66C53.6673 24.0547 53.8542 23.3589 54.3449 22.9435C54.8565 22.5105 55.6104 22.4538 56.1801 22.8078C56.7256 23.1469 57.0138 23.8091 56.8868 24.4391C56.7413 25.1602 56.0926 25.6969 55.3556 25.6969V25.6969Z" fill="#1E959B"/>
<path d="M47.6986 25.6969H36.8174C35.9546 25.6969 35.2549 24.9972 35.2549 24.1344C35.2549 23.2714 35.9546 22.5719 36.8174 22.5719H47.6986C48.5614 22.5719 49.2611 23.2714 49.2611 24.1344C49.2611 24.9972 48.5614 25.6969 47.6986 25.6969Z" fill="#1E959B"/>
<path d="M11.68 19.7173C6.24395 19.7173 1.82129 15.2947 1.82129 9.85859C1.82129 4.4225 6.24395 0 11.68 0C17.1163 0 21.539 4.42266 21.539 9.85875C21.539 15.2948 17.1163 19.7173 11.68 19.7173V19.7173ZM11.68 3.125C7.96707 3.125 4.94629 6.14578 4.94629 9.85875C4.94629 13.5717 7.96707 16.5925 11.68 16.5925C15.3932 16.5925 18.414 13.5717 18.414 9.85875C18.414 6.14578 15.3932 3.125 11.68 3.125V3.125Z" fill="#1E959B"/>
<path d="M21.7977 37.5328H1.5625C0.699531 37.5328 0 36.8331 0 35.9703V25.6659C0 23.2794 1.94172 21.3376 4.32828 21.3376H19.0319C21.4184 21.3376 23.3602 23.2794 23.3602 25.6659V35.9703C23.3602 36.8331 22.6605 37.5328 21.7977 37.5328V37.5328ZM3.125 34.4078H20.2352V25.6659C20.2352 25.0025 19.6953 24.4626 19.0319 24.4626H4.32828C3.66484 24.4626 3.125 25.0025 3.125 25.6659V34.4078Z" fill="#1E959B"/>
<path d="M47.7302 80C47.3981 80 47.0684 79.8942 46.7927 79.6877L40.7463 75.1536H3.21063C1.44031 75.1536 0 73.7134 0 71.943V54.8506C0 53.08 1.44047 51.6395 3.21109 51.6395H51.1775C52.9481 51.6395 54.3888 53.08 54.3888 54.8506V71.9431C54.3888 73.7134 52.9484 75.1537 51.1781 75.1537H49.2925V78.4375C49.2925 79.0292 48.9581 79.5703 48.4289 79.835C48.2077 79.9455 47.9683 80 47.7302 80V80ZM3.21109 54.7645C3.16359 54.7645 3.125 54.8031 3.125 54.8506V71.9431C3.125 71.9903 3.16344 72.0287 3.21063 72.0287H41.267C41.605 72.0287 41.9341 72.1383 42.2044 72.3411L46.1675 75.313V73.5912C46.1675 72.7284 46.867 72.0287 47.73 72.0287H51.1781C51.2253 72.0287 51.2638 71.9903 51.2638 71.9431V54.8506C51.2638 54.8031 51.2252 54.7645 51.1775 54.7645H3.21109Z" fill="#1E959B"/>
<path d="M43.184 60.8192H11.2061C10.3432 60.8192 9.64355 60.1195 9.64355 59.2567C9.64355 58.3939 10.3431 57.6942 11.2061 57.6942H43.184C44.047 57.6942 44.7465 58.3939 44.7465 59.2567C44.7465 60.1197 44.047 60.8192 43.184 60.8192Z" fill="#1E959B"/>
<path d="M16.8332 68.1639H11.2051C10.3423 68.1639 9.64258 67.4643 9.64258 66.6014C9.64258 65.7386 10.3421 65.0389 11.2051 65.0389H16.8332C17.696 65.0389 18.3957 65.7386 18.3957 66.6014C18.3957 67.4643 17.6962 68.1639 16.8332 68.1639Z" fill="#1E959B"/>
<path d="M24.6454 68.1641C23.9917 68.1641 23.3964 67.7411 23.1759 67.1272C22.9567 66.5169 23.1473 65.8142 23.6472 65.3997C24.1315 64.9981 24.827 64.9289 25.3817 65.224C25.9575 65.5305 26.2864 66.1861 26.1911 66.8306C26.0797 67.5858 25.4089 68.1641 24.6454 68.1641V68.1641Z" fill="#1E959B"/>
<path d="M43.183 68.1639H32.3018C31.4389 68.1639 30.7393 67.4643 30.7393 66.6014C30.7393 65.7386 31.4389 65.0389 32.3018 65.0389H43.183C44.046 65.0389 44.7455 65.7386 44.7455 66.6014C44.7455 67.4643 44.046 68.1639 43.183 68.1639Z" fill="#1E959B"/>
<path d="M68.3198 62.1845C62.8836 62.1845 58.4609 57.7619 58.4609 52.3258C58.4609 46.8897 62.8836 42.467 68.3198 42.467C73.7559 42.467 78.1786 46.8897 78.1786 52.3258C78.1786 57.762 73.7559 62.1845 68.3198 62.1845ZM68.3198 45.5922C64.6067 45.5922 61.5859 48.613 61.5859 52.3259C61.5859 56.0389 64.6067 59.0597 68.3198 59.0597C72.0328 59.0597 75.0536 56.0389 75.0536 52.3259C75.0536 48.613 72.0328 45.5922 68.3198 45.5922Z" fill="#1E959B"/>
<path d="M78.4373 80H58.2021C57.3393 80 56.6396 79.3003 56.6396 78.4375V68.1331C56.6396 65.7466 58.5814 63.8049 60.9679 63.8049H75.6715C78.0581 63.8049 79.9998 65.7466 79.9998 68.1331V78.4375C79.9998 79.3003 79.3001 80 78.4373 80ZM59.7646 76.875H76.8748V68.1331C76.8748 67.4697 76.335 66.9299 75.6715 66.9299H60.9679C60.3045 66.9299 59.7646 67.4697 59.7646 68.1331V76.875Z" fill="#1E959B"/>
</svg>
