<svg width="80" height="80" viewBox="0 0 80 80" fill="none" xmlns="http://www.w3.org/2000/svg">
<path d="M57.0732 0H9.7938C4.71931 0.00656658 0.607153 4.11872 0.600586 9.19321V56.3636C0.607153 61.4381 4.71931 65.5502 9.7938 65.5568H24.2403V62.9302H9.7938C6.16905 62.9259 3.23149 59.9883 3.22722 56.3636V34.1462H11.6613C12.4396 34.0893 13.0246 33.4122 12.9676 32.6338C12.9566 32.4837 12.9218 32.3363 12.8643 32.1973C11.6971 29.5411 12.9041 26.4416 15.5602 25.2744C18.2164 24.1072 21.3158 25.3142 22.4831 27.9704C23.0749 29.3172 23.0749 30.8505 22.4831 32.1973C22.1587 32.8759 22.446 33.689 23.1246 34.0134C23.3001 34.0973 23.4917 34.1426 23.6861 34.1464H32.1202V42.0263C31.6863 41.9524 31.247 41.916 30.8069 41.9173C26.4549 41.9158 22.9258 45.4425 22.9242 49.7944C22.923 52.9298 24.7809 55.7673 27.6549 57.0204L28.7056 54.6144C26.0451 53.4571 24.8265 50.3622 25.9837 47.7018C26.8186 45.7822 28.7136 44.5416 30.8069 44.5439C31.5307 44.5437 32.2464 44.6949 32.9082 44.9878C33.5729 45.2779 34.3471 44.9742 34.6371 44.3095C34.7094 44.144 34.7466 43.9654 34.7468 43.7848V34.1462H41.425C41.3503 34.5799 41.3129 35.0194 41.3134 35.4595C41.3213 39.2015 43.9527 42.425 47.6173 43.1818L48.1426 40.609C45.6995 40.1036 43.9454 37.9543 43.94 35.4595C43.9399 34.7357 44.0911 34.02 44.3839 33.3582C44.674 32.6935 44.3703 31.9193 43.7056 31.6292C43.5401 31.557 43.3615 31.5198 43.1809 31.5196H34.7468V24.8414C35.1805 24.9161 35.62 24.9535 36.0601 24.953C40.4121 24.953 43.94 21.4251 43.94 17.0731C43.94 12.7211 40.4121 9.19321 36.0601 9.19321C35.62 9.19272 35.1805 9.23015 34.7468 9.30484V2.62663H57.0732C60.6979 2.6309 63.6355 5.56846 63.6398 9.19321V31.5196H55.2057C54.4804 31.5199 53.8927 32.1083 53.893 32.8336C53.8932 33.0141 53.9304 33.1928 54.0027 33.3582C54.2955 34.02 54.4467 34.7357 54.4466 35.4595H57.0732C57.0737 35.0194 57.0362 34.5799 56.9616 34.1462H64.9531C65.6784 34.1462 66.2664 33.5582 66.2664 32.8329V9.19321C66.2598 4.11872 62.1477 0.00656658 57.0732 0ZM36.0601 11.8198C38.9614 11.8198 41.3134 14.1718 41.3134 17.0731C41.3134 19.9744 38.9614 22.3264 36.0601 22.3264C35.3363 22.3265 34.6206 22.1753 33.9588 21.8825C33.2941 21.5924 32.5199 21.8961 32.2298 22.5608C32.1576 22.7263 32.1203 22.9049 32.1202 23.0855V31.4106H25.4512C25.517 31.0125 25.5511 30.6098 25.5536 30.2063C25.5536 30.1826 25.5536 30.1616 25.5536 30.138C25.5536 30.1143 25.5536 30.1104 25.5536 30.0973C25.5536 25.7453 22.0257 22.2174 17.6737 22.2174C13.3217 22.2174 9.7938 25.7453 9.7938 30.0973C9.7938 30.1104 9.7938 30.1248 9.7938 30.138C9.7938 30.1511 9.7938 30.1826 9.7938 30.2063C9.79626 30.6098 9.83041 31.0125 9.89624 31.4106H3.22722V9.19321C3.23149 5.56846 6.16905 2.6309 9.7938 2.62663H32.1202V11.0607C32.1205 11.786 32.7089 12.3737 33.4341 12.3734C33.6147 12.3732 33.7933 12.336 33.9588 12.2637C34.6206 11.9709 35.3363 11.8197 36.0601 11.8198Z" fill="#1E959B"/>
<path d="M76.5901 56.449L65.549 48.8462L61.3083 37.5162C61.0554 36.8364 60.2992 36.4905 59.6194 36.7435C59.5951 36.7525 59.571 36.7624 59.5472 36.7729L51.0106 40.5487C50.3707 40.8312 50.0647 41.5658 50.3146 42.2192C50.4564 42.5869 50.5891 42.8653 50.7296 43.1543C50.8701 43.4432 51.0001 43.7137 51.159 44.1406C52.1785 46.8646 50.8059 49.9006 48.0872 50.9344C45.3698 51.9507 42.3429 50.5719 41.3264 47.8543C41.0715 47.1727 40.961 46.4456 41.0018 45.7192C41.0399 44.9949 40.4836 44.3768 39.7593 44.3387C39.5777 44.3292 39.3963 44.3574 39.2262 44.4216L30.1013 47.8586C29.4238 48.1138 29.0807 48.8693 29.3343 49.5475L32.6098 58.2981C32.1755 58.3772 31.7492 58.495 31.3358 58.6501C27.249 60.173 25.1706 64.7207 26.6936 68.8076C28.2165 72.8945 32.7642 74.9728 36.8511 73.4498C37.2719 73.2931 37.6785 73.1007 38.0666 72.8746L40.4148 79.147C40.6693 79.8263 41.426 80.1706 42.1054 79.9161C42.1062 79.9158 42.1068 79.9155 42.1077 79.9153L55.12 75.0127C55.9374 76.7696 57.4414 78.1126 59.2793 78.7267L60.1093 76.2314C59.0268 75.8667 58.1272 75.0979 57.5982 74.0855L61.5579 72.5949C62.8585 76.2533 66.3234 78.6951 70.2061 78.69V76.0633C66.5887 76.0412 63.6616 73.1141 63.6395 69.4968C63.6395 69.1484 63.5009 68.8145 63.2547 68.5683L58.6817 63.9953C58.0037 63.3114 57.9272 62.2348 58.5018 61.4619C58.8364 61.0103 59.3528 60.7289 59.9136 60.6923C60.4752 60.645 61.0283 60.8519 61.4213 61.2557L70.5909 70.4253L72.4479 68.5683L69.7346 65.8549C70.4031 63.8559 70.3619 61.6875 69.6177 59.7152L67.1565 53.142L75.0929 58.6067C76.1449 59.3452 76.7717 60.5496 76.7726 61.8349V78.799H79.3993V61.8349C79.3975 59.6888 78.3489 57.6786 76.5901 56.449ZM67.1579 60.6358C67.5207 61.6001 67.652 62.636 67.5413 63.6604L63.2783 59.3987C61.5186 57.594 58.6293 57.5577 56.8247 59.3173C55.02 61.0769 54.9837 63.9662 56.7433 65.7709C56.77 65.7983 56.7971 65.8256 56.8247 65.8523L60.9787 70.0063L42.4189 76.9971L39.9157 70.3084C39.7599 69.8927 39.4047 69.5841 38.9715 69.4876C38.8779 69.4669 38.7823 69.4562 38.6865 69.4561C38.3429 69.4557 38.0129 69.5902 37.7671 69.8304C35.6583 71.8228 32.3333 71.7284 30.3408 69.6194C28.3484 67.5105 28.4428 64.1856 30.5518 62.1931C31.0479 61.7244 31.6303 61.357 32.267 61.1111C32.6851 60.9561 33.1218 60.8573 33.5659 60.8169C33.839 60.7834 34.1145 60.7742 34.3893 60.7893C35.1136 60.8272 35.7317 60.2709 35.7696 59.5466C35.7791 59.3665 35.7514 59.1864 35.6882 59.0177L32.2578 49.8586L38.5118 47.5038C39.3326 51.7777 43.4627 54.5768 47.7365 53.7562C48.1732 53.6723 48.602 53.5516 49.0183 53.3953C53.0908 51.8502 55.1492 47.305 53.6241 43.225C53.5033 42.902 53.3943 42.6459 53.2892 42.4173L59.3305 39.7421L67.1579 60.6358Z" fill="#1E959B"/>
</svg>
