<svg width="80" height="80" viewBox="0 0 80 80" fill="none" xmlns="http://www.w3.org/2000/svg">
<path d="M61.25 60C63.3175 60 65 58.3175 65 56.25C65 54.1825 63.3175 52.5 61.25 52.5C59.1825 52.5 57.5 54.1825 57.5 56.25C57.5 58.3175 59.1825 60 61.25 60ZM61.25 55C61.9387 55 62.5 55.56 62.5 56.25C62.5 56.94 61.9387 57.5 61.25 57.5C60.5613 57.5 60 56.94 60 56.25C60 55.56 60.5613 55 61.25 55Z" fill="#1E959B"/>
<path d="M73.95 50.9725C73.5712 50.065 73.7725 49.0337 74.4613 48.3437L76.28 46.5238L70.975 41.2187L69.1538 43.0387C68.465 43.7287 67.4325 43.9288 66.4775 43.5288C65.58 43.1588 65 42.2913 65 41.3188V38.75H62.4363C62.3225 36.7337 61.9487 34.785 61.3287 32.9387L75.7937 18.4738C77.7 16.5675 78.75 14.0337 78.75 11.3388C78.75 5.77625 74.2238 1.25 68.6613 1.25C65.9663 1.25 63.4325 2.3 61.5275 4.205L47.0775 18.6563C45.2087 18.0288 43.2275 17.6637 41.1812 17.555C39.4562 14.5412 36.215 12.5 32.5 12.5C31.5488 12.5 30.6312 12.6425 29.7575 12.8912C27.6 8.835 23.4087 6.25 18.75 6.25C11.8575 6.25 6.25 11.8575 6.25 18.75C6.25 19.7075 6.3675 20.65 6.58125 21.5725C3.5 22.505 1.25 25.3688 1.25 28.75C1.25 32.8863 4.61375 36.25 8.75 36.25H17.8175C17.61 37.4863 17.5 38.7413 17.5 40C17.5 42.7512 18.0088 44.99 18.83 46.9025L7.67875 58.055L1.47375 74.1875C1.325 74.5725 1.25 74.9775 1.25 75.3912C1.25 77.2437 2.7575 78.75 4.60875 78.75C5.0225 78.75 5.4275 78.6737 5.81375 78.5262L21.9462 72.3212L30.1 64.1663C30.0387 64.435 30 64.7125 30 65C30 65.9638 30.3763 66.835 30.975 67.5C30.375 68.165 30 69.0362 30 70C30 71.7375 31.1937 73.19 32.8 73.6125C33.865 76.6625 36.7175 78.75 40 78.75C43.2825 78.75 46.135 76.6625 47.2 73.6125C48.8062 73.19 50 71.7375 50 70C50 69.9062 49.9788 69.8188 49.9725 69.7275L51.525 71.28L53.3462 69.46C54.035 68.77 55.0638 68.5687 56.0213 68.9675C56.9188 69.3412 57.5 70.2087 57.5 71.1812V73.75H65V71.1812C65 70.2087 65.5813 69.34 66.5275 68.9488C67.435 68.5713 68.4663 68.77 69.155 69.46L70.975 71.28L76.28 65.975L74.4613 64.155C73.7725 63.465 73.5712 62.4337 73.97 61.4787C74.3412 60.5812 75.2087 60 76.1812 60H78.75V52.5H76.1812C75.2087 52.5 74.3412 51.9187 73.95 50.9725V50.9725ZM55.22 54.6575C56.5837 53.3263 57.95 51.9662 59.1288 50.3937C59.8088 50.1462 60.5162 50 61.25 50C64.6962 50 67.5 52.8038 67.5 56.25C67.5 59.6962 64.6962 62.5 61.25 62.5C57.8038 62.5 55 59.6962 55 56.25C55 55.7088 55.0837 55.1763 55.22 54.6575V54.6575ZM56.7212 25.0475L62.5 19.2675L66.9825 23.75L60.3062 30.4262C59.37 28.4612 58.16 26.6538 56.7212 25.0475V25.0475ZM58.0175 11.25L60 9.2675L70.7325 20L68.75 21.9825L58.0175 11.25ZM68.6613 3.75C72.845 3.75 76.25 7.155 76.25 11.3388C76.25 13.365 75.4613 15.2713 74.0275 16.705L72.5 18.2325L61.7675 7.5L63.295 5.9725C64.7288 4.54 66.6338 3.75 68.6613 3.75V3.75ZM56.25 13.0175L60.7325 17.5L54.9563 23.2763C53.3513 21.8363 51.545 20.625 49.58 19.6875L56.25 13.0175ZM60 40C60 46.5038 56.725 49.6988 53.2575 53.08C50.87 55.4088 48.4175 57.8163 46.99 61.325C46.7512 61.2763 46.5037 61.25 46.25 61.25H41.25V55C41.25 52.9325 39.5675 51.25 37.5 51.25H35C34.3113 51.25 33.75 50.69 33.75 50C33.75 49.31 34.3113 48.75 35 48.75H47.5C49.5675 48.75 51.25 47.0675 51.25 45C51.25 42.9325 49.5675 41.25 47.5 41.25H37.5C36.8113 41.25 36.25 40.69 36.25 40V36.25H42.5C45.9462 36.25 48.75 33.4462 48.75 30C48.75 26.5538 45.9462 23.75 42.5 23.75C42.465 23.75 42.4325 23.76 42.3975 23.76C42.4512 23.3425 42.5 22.925 42.5 22.5C42.5 21.6825 42.39 20.8913 42.205 20.13C52.17 21.24 60 29.7925 60 40V40ZM32.5 65C32.5 64.31 33.0613 63.75 33.75 63.75H46.25C46.9387 63.75 47.5 64.31 47.5 65C47.5 65.69 46.9387 66.25 46.25 66.25H33.75C33.0613 66.25 32.5 65.69 32.5 65ZM16.7675 65L25.9562 55.8112C27.4937 57.3362 28.9213 58.8787 29.9738 60.7575L21.25 69.4825L16.7675 65ZM3.75 28.75C3.75 25.9925 5.9925 23.75 8.75 23.75C11.5075 23.75 13.75 25.9925 13.75 28.75H16.25C16.25 24.7225 13.0562 21.435 9.07 21.2663C8.8575 20.4488 8.75 19.605 8.75 18.75C8.75 13.2363 13.2363 8.75 18.75 8.75C22.4062 8.75 25.7062 10.7375 27.4612 13.8762C24.7962 15.44 22.9137 18.1937 22.5625 21.4075C20.38 21.945 18.75 23.9038 18.75 26.25H21.25C21.25 24.8712 22.3712 23.75 23.75 23.75C25.1288 23.75 26.25 24.8712 26.25 26.25H28.75C28.75 23.9562 27.19 22.04 25.0813 21.4525C25.5938 17.8125 28.72 15 32.5 15C36.6363 15 40 18.3637 40 22.5C40 23.1575 39.8925 23.8012 39.725 24.4287C37.675 25.455 36.25 27.555 36.25 30H38.75C38.75 27.9325 40.4325 26.25 42.5 26.25C44.5675 26.25 46.25 27.9325 46.25 30C46.25 32.0675 44.5675 33.75 42.5 33.75H8.75C5.9925 33.75 3.75 31.5075 3.75 28.75V28.75ZM33.75 36.25V40C33.75 42.0675 35.4325 43.75 37.5 43.75H47.5C48.1887 43.75 48.75 44.31 48.75 45C48.75 45.69 48.1887 46.25 47.5 46.25H35C32.9325 46.25 31.25 47.9325 31.25 50C31.25 52.0675 32.9325 53.75 35 53.75H37.5C38.1887 53.75 38.75 54.31 38.75 55V61.25H33.75C33.4963 61.25 33.2488 61.2763 33.01 61.325C31.5825 57.8163 29.13 55.4088 26.7425 53.08C23.275 49.6988 20 46.5038 20 40C20 38.7362 20.1513 37.4837 20.385 36.25H33.75ZM24.1712 54.0613L15 63.2325L10.5175 58.75L20.055 49.2125C21.2288 51.055 22.6837 52.5925 24.1712 54.0613V54.0613ZM9.22625 60.9937L19.0062 70.7737L10.7263 73.9587L6.04125 69.2737L9.22625 60.9937ZM4.9175 76.1925C4.37625 76.4025 3.75 75.9712 3.75 75.3912C3.75 75.285 3.77 75.1813 3.80625 75.0838L5.05875 71.8262L8.1725 74.94L4.9175 76.1925ZM40 76.25C38.1538 76.25 36.5075 75.2675 35.595 73.75H44.405C43.4925 75.2675 41.8462 76.25 40 76.25ZM46.25 71.25H33.75C33.0613 71.25 32.5 70.69 32.5 70C32.5 69.31 33.0613 68.75 33.75 68.75H46.25C46.9387 68.75 47.5 69.31 47.5 70C47.5 70.69 46.9387 71.25 46.25 71.25ZM76.25 57.5H76.1812C74.1925 57.5 72.4175 58.6875 71.6425 60.565C70.8725 62.4112 71.285 64.5137 72.6925 65.9225L72.745 65.975L70.975 67.745L70.9225 67.6925C69.5125 66.2825 67.4075 65.8687 65.5237 66.6587C63.6875 67.4187 62.5 69.1925 62.5 71.1812V71.25H60V71.1812C60 69.1925 58.8125 67.4175 56.935 66.6412C55.0863 65.87 52.9838 66.2837 51.5763 67.6925L51.5238 67.745L49.83 66.0512C49.93 65.715 50 65.3675 50 65C50 64.1125 49.6775 63.3075 49.16 62.6638C49.9375 60.565 51.1563 58.8862 52.575 57.3362C53.1125 61.6487 56.7937 65 61.25 65C66.075 65 70 61.0737 70 56.25C70 51.4263 66.075 47.5 61.25 47.5C61.1275 47.5 61.0087 47.5125 60.8875 47.5175C61.7337 45.7612 62.315 43.725 62.4613 41.25H62.5V41.3188C62.5 43.3075 63.6875 45.0838 65.5638 45.8575C67.4088 46.63 69.5137 46.2175 70.9225 44.8075L70.975 44.755L72.745 46.525L72.6925 46.5775C71.285 47.9863 70.8725 50.09 71.6587 51.975C72.4175 53.8125 74.1925 55 76.1812 55H76.25V57.5Z" fill="#1E959B"/>
</svg>
