<svg width="80" height="80" viewBox="0 0 80 80" fill="none" xmlns="http://www.w3.org/2000/svg">
<g clip-path="url(#clip0_120_1329)">
<path d="M28.6482 60.3172C28.0022 60.3172 27.4785 60.8407 27.4785 61.4869V67.6468C27.4785 68.293 28.0022 68.8165 28.6482 68.8165C29.2942 68.8165 29.8179 68.293 29.8179 67.6468V61.4869C29.8179 60.8407 29.2942 60.3172 28.6482 60.3172Z" fill="#1E959B"/>
<path d="M51.2898 60.3172C50.6438 60.3172 50.1201 60.8407 50.1201 61.4869V67.6468C50.1201 68.293 50.6438 68.8165 51.2898 68.8165C51.9358 68.8165 52.4595 68.293 52.4595 67.6468V61.4869C52.4595 60.8407 51.9358 60.3172 51.2898 60.3172Z" fill="#1E959B"/>
<path d="M74.0171 56.2337L70.1005 54.6624V53.6621C70.8694 53.2348 71.5597 52.6788 72.1406 52.0225C74.618 52.3149 76.9883 51.326 78.5228 49.3365C80.1097 47.2791 80.4398 44.6277 79.4061 42.2439L77.6474 38.1887C77.5152 37.884 77.4242 37.5626 77.3768 37.2338C76.9979 34.5997 75.6814 32.1892 73.6701 30.4466C71.6587 28.7038 69.0854 27.7442 66.4242 27.7442C63.7629 27.7442 61.1897 28.7038 59.1783 30.4466C57.1671 32.1892 55.8505 34.5995 55.4715 37.2338C55.4241 37.5627 55.3332 37.8841 55.2009 38.1887L53.4424 42.2439C52.4087 44.6275 52.7389 47.279 54.3257 49.3365C55.6832 51.0965 57.6944 52.0773 59.8551 52.0771C60.1338 52.0771 60.4153 52.0606 60.6982 52.0274C61.2254 52.6251 61.8436 53.14 62.5321 53.5498V54.6622L58.6158 56.2337C58.3605 56.3361 58.1112 56.452 57.8683 56.5802C57.1105 55.1864 56.0286 53.9676 54.6824 53.0417L49.5812 49.5335C49.6107 48.8892 49.353 48.2403 48.8282 47.795L46.7554 46.0361C46.5589 45.8693 46.3381 45.7433 46.1048 45.6576V43.2896C48.2958 41.7004 49.8494 39.2859 50.3048 36.5052H50.4296C52.6598 36.5052 54.4742 34.6908 54.4742 32.4608C54.4742 31.5086 54.1426 30.6328 53.5901 29.9411L54.4261 23.9975C55.0288 19.7127 52.0374 15.7092 47.7575 15.0726L47.591 15.0479C46.2225 12.8143 44.1029 11.2028 41.5597 10.4817L41.2536 10.3948C37.8818 9.4388 34.2752 10.0094 31.3585 11.9608C30.8215 12.3199 30.6774 13.0464 31.0366 13.5832C31.3958 14.12 32.122 14.2642 32.6592 13.9049C35.0049 12.3357 37.9048 11.8767 40.6154 12.6454L40.9216 12.7323C43.0496 13.3357 44.7965 14.7419 45.8404 16.692C46.5586 18.0337 46.8757 19.5092 46.7841 20.9852L45.9912 20.3037C45.2665 19.6808 44.2009 19.6642 43.4576 20.2647L42.4175 21.1048H36.4804C32.6278 21.1048 29.4934 24.2392 29.4934 28.0918V28.4167C29.1832 28.4177 28.8816 28.4549 28.5915 28.5224C27.2692 24.7997 27.642 20.6054 29.6296 17.1745C29.9533 16.6154 29.7627 15.8999 29.2038 15.576C28.6448 15.2524 27.9293 15.4428 27.6054 16.0018C25.2018 20.1511 24.8121 25.2526 26.5401 29.7173C25.8727 30.4388 25.464 31.4028 25.464 32.4608C25.464 34.6908 27.2784 36.5052 29.5085 36.5052H29.6333C30.0887 39.2859 31.6423 41.7004 33.8334 43.2896V45.6576C33.6 45.7431 33.3792 45.8693 33.1829 46.036L31.1099 47.795C30.5851 48.2403 30.3275 48.8894 30.3569 49.5335L25.2558 53.0417C24.2191 53.7546 23.3389 54.641 22.6427 55.6474C22.1915 55.3982 21.7213 55.1852 21.2344 55.0127L17.7709 53.7859V52.8641C19.5351 51.7741 20.8034 49.9572 21.1566 47.8343H21.68C23.7322 47.8343 25.4017 46.1648 25.4017 44.1127C25.4017 43.1913 25.0646 42.3479 24.5079 41.6973L24.7168 39.2252C25.007 35.6654 23.4537 32.2886 20.5615 30.193C17.6693 28.0971 13.9767 27.6724 10.6841 29.0567L8.35274 30.0369C4.74282 30.8338 2.33002 34.2929 2.84545 37.9673L3.36697 41.6853C2.80428 42.3375 2.46289 43.1857 2.46289 44.1127C2.46289 46.1648 4.1324 47.8343 6.18463 47.8343H6.70802C7.03834 49.8195 8.16918 51.5364 9.75713 52.6423V53.7859L6.29365 55.0125C5.80862 55.1844 5.33077 55.3996 4.87351 55.6526C4.30817 55.9651 4.10324 56.6767 4.41578 57.2421C4.62912 57.6281 5.02853 57.8459 5.44041 57.8459C5.63177 57.8459 5.82593 57.7988 6.00528 57.6996C6.35041 57.5088 6.71021 57.3466 7.07436 57.2176L10.0672 56.1575C10.6732 57.602 12.1018 58.6192 13.7638 58.6192C15.4258 58.6192 16.8544 57.602 17.4604 56.1575L20.4532 57.2177C20.8297 57.3509 21.1931 57.5167 21.5413 57.7113C21.0768 58.8891 20.8277 60.1583 20.8277 61.4607V68.3998C20.8277 69.0459 21.3514 69.5695 21.9974 69.5695C22.6433 69.5695 23.167 69.0459 23.167 68.3998V61.4607C23.167 58.8662 24.4434 56.4395 26.5811 54.9693L31.4525 51.6191L33.4492 54.2887C33.8784 54.8626 34.5514 55.1859 35.2455 55.1859C35.4617 55.1859 35.68 55.1546 35.8935 55.0896L38.7992 54.2053V68.8895C38.7992 69.5356 39.3229 70.0592 39.9688 70.0592C40.6148 70.0592 41.1385 69.5356 41.1385 68.8895V54.2053L44.0444 55.0897C44.2579 55.1546 44.476 55.1859 44.6921 55.1859C45.3861 55.1859 46.0592 54.8625 46.4884 54.2887L48.485 51.6191L53.3564 54.9693C55.4943 56.4395 56.7705 58.8662 56.7705 61.4607V68.3998C56.7705 69.0459 57.2942 69.5695 57.9402 69.5695C58.5861 69.5695 59.1098 69.0459 59.1098 68.3998V61.4607C59.1098 60.5395 58.9849 59.6348 58.7479 58.767C58.9849 58.6287 59.2315 58.5073 59.4865 58.405L62.8827 57.0423C63.4844 58.3374 64.7968 59.238 66.3163 59.238C67.8357 59.238 69.1481 58.3375 69.7498 57.0424L73.1462 58.405C75.2939 59.2665 76.6814 61.3185 76.6814 63.6324V65.6123C76.6814 66.2584 77.2051 66.7819 77.8511 66.7819C78.4971 66.7819 79.0208 66.2584 79.0208 65.6123V63.6324C79.0206 60.3573 77.0565 57.4532 74.0171 56.2337V56.2337ZM27.8028 32.4606C27.8028 31.5255 28.5597 30.7644 29.4929 30.7562V34.1647C28.5598 34.1566 27.8028 33.3957 27.8028 32.4606ZM21.6797 45.4948H21.2573V42.73H21.6797C22.442 42.73 23.0621 43.3503 23.0621 44.1124C23.0621 44.8746 22.442 45.4948 21.6797 45.4948V45.4948ZM4.80192 44.1126C4.80192 43.3503 5.42201 42.7302 6.18432 42.7302H6.60665V45.495H6.18432C5.42216 45.4948 4.80192 44.8747 4.80192 44.1126V44.1126ZM8.02726 36.7853C7.25137 37.8567 6.78226 39.0905 6.64798 40.3907H6.18432C5.96973 40.3907 5.75981 40.41 5.55504 40.4449L5.16187 37.6419C4.81222 35.1498 6.47035 32.8051 8.93664 32.304C9.01212 32.2887 9.08605 32.266 9.15716 32.236L11.5907 31.2128C14.1237 30.1478 16.964 30.4748 19.1887 32.0868C21.4135 33.6991 22.6084 36.2964 22.3854 39.0312L22.2665 40.4371C22.0753 40.4067 21.8795 40.3905 21.6797 40.3905H21.2471C21.1463 39.3988 20.3065 38.6221 19.2886 38.6221H16.4002C14.3418 38.6221 12.3048 37.937 10.6648 36.6933L10.3339 36.4423C9.98638 36.1788 9.53941 36.0643 9.1085 36.1285C8.67713 36.1928 8.28303 36.4322 8.02726 36.7853V36.7853ZM9.92197 38.1574C9.92166 38.1578 9.9215 38.1582 9.92135 38.1585C9.9215 38.1582 9.92182 38.1578 9.92197 38.1574ZM8.94615 41.1692C8.94615 40.3233 9.14999 39.5058 9.54035 38.7697C11.5324 40.1856 13.9542 40.9618 16.4004 40.9618H18.918V46.6283C18.918 49.3777 16.6813 51.6144 13.9321 51.6144C11.1829 51.6144 8.94615 49.3777 8.94615 46.6283V41.1692ZM13.7636 56.2798C12.8441 56.2798 12.0962 55.5317 12.0962 54.6123V53.7206C12.683 53.8726 13.2983 53.9537 13.9321 53.9537C14.4458 53.9537 14.947 53.9001 15.4313 53.7989V54.6123C15.4313 55.5317 14.6832 56.2798 13.7636 56.2798ZM50.4443 34.1647V30.7562C51.3775 30.7643 52.1344 31.5255 52.1344 32.4606C52.1344 33.3957 51.3775 34.1566 50.4443 34.1647ZM52.1091 23.6712L51.4241 28.5402C51.1104 28.4605 50.7821 28.4176 50.4441 28.4163V28.3217C50.4441 26.4359 49.8608 24.6219 48.8045 23.1062C49.2651 21.3323 49.2489 19.5061 48.7721 17.7703C51.0314 18.7346 52.4662 21.1327 52.1091 23.6712V23.6712ZM31.8324 34.8067V28.0915C31.8324 25.5287 33.9174 23.4438 36.4801 23.4438H42.8306C43.0981 23.4438 43.3575 23.3521 43.5655 23.1842L44.6935 22.2729L45.7414 23.1736C47.2434 24.4646 48.1048 26.3412 48.1048 28.3217V34.8065C48.1048 39.2929 44.4549 42.9427 39.9685 42.9427C35.4821 42.9427 31.8324 39.2929 31.8324 34.8067V34.8067ZM39.9687 45.2822C41.3076 45.2822 42.587 45.0271 43.7651 44.5673V46.0661L39.9687 47.9276L36.1722 46.0661V44.5673C37.3502 45.0269 38.6298 45.2822 39.9687 45.2822ZM35.28 52.8307L32.7604 49.4619L34.6002 47.9006L38.7988 49.9592V51.7597L35.28 52.8307ZM44.6572 52.8307L41.1383 51.7599V49.9594L45.337 47.9008L47.1768 49.462L44.6572 52.8307ZM56.1778 47.9078C55.1189 46.5347 54.8985 44.7656 55.5885 43.1748L57.347 39.1196C57.562 38.6243 57.71 38.102 57.7868 37.5671C58.4008 33.3009 62.114 30.0837 66.4242 30.0837C70.7343 30.0837 74.4475 33.3009 75.0614 37.5671C75.1382 38.1019 75.2862 38.6242 75.5011 39.1196L77.2597 43.1748C77.9495 44.7654 77.7293 46.5347 76.6704 47.9078C75.8862 48.9243 74.775 49.5501 73.5554 49.7003C73.8073 49.0459 73.9715 48.3483 74.0319 47.6213C74.0852 46.9775 73.6064 46.4123 72.9628 46.359C72.3196 46.3067 71.754 46.7844 71.7005 47.428C71.4751 50.149 69.1575 52.2805 66.4242 52.2805C63.5036 52.2805 61.1277 49.9046 61.1277 46.984V41.3729C61.1277 40.1287 61.4939 38.905 62.1684 37.8664C63.682 39.0217 65.5477 39.6825 67.4535 39.7328L71.7206 39.8455V42.5398C71.7206 43.1859 72.2443 43.7094 72.8903 43.7094C73.5363 43.7094 74.06 43.1859 74.06 42.5398V39.5287C74.06 38.4286 73.1985 37.5442 72.0988 37.5153L67.5151 37.3946C66.0309 37.3553 64.5794 36.8177 63.4279 35.8812L63.1257 35.6353C62.7692 35.3453 62.3214 35.2125 61.8643 35.2616C61.4075 35.3104 60.9978 35.535 60.711 35.8935C59.471 37.4428 58.7879 39.3888 58.7879 41.3734V46.9845C58.7879 47.9401 58.9659 48.8544 59.2879 49.6981C58.0705 49.5469 56.9609 48.923 56.1778 47.9078V47.9078ZM66.3161 56.8985C65.5193 56.8985 64.871 56.2503 64.871 55.4534V54.4607C65.3727 54.5648 65.8921 54.62 66.424 54.62C66.8791 54.62 67.3256 54.5772 67.761 54.4986V55.4536C67.7612 56.2503 67.1129 56.8985 66.3161 56.8985V56.8985Z" fill="#1E959B"/>
<path d="M2.507 59.26C1.92559 58.9779 1.22613 59.2215 0.944472 59.8029C0.317839 61.0975 0 62.482 0 63.9182V67.6469C0 68.293 0.523701 68.8165 1.16967 68.8165C1.81564 68.8165 2.33935 68.293 2.33935 67.6469V63.9182C2.33935 62.8381 2.57843 61.7966 3.05019 60.8224C3.3317 60.241 3.08856 59.5413 2.507 59.26V59.26Z" fill="#1E959B"/>
</g>
<defs>
<clipPath id="clip0_120_1329">
<rect width="80" height="80" fill="white"/>
</clipPath>
</defs>
</svg>
