<svg width="90" height="84" viewBox="0 0 90 84" fill="none" xmlns="http://www.w3.org/2000/svg">
<g filter="url(#filter0_d_120_1448)">
<path d="M10.6641 25C10.6641 13.9543 19.6184 5 30.6641 5H59.712C70.7577 5 79.712 13.9543 79.712 25V49C79.712 60.0457 70.7577 69 59.712 69H30.6641C19.6184 69 10.6641 60.0457 10.6641 49V25Z" fill="url(#paint0_linear_120_1448)"/>
</g>
<path fill-rule="evenodd" clip-rule="evenodd" d="M60.208 24.54C60.208 25.2411 59.9849 25.9515 59.4205 26.3673C58.68 26.9129 57.7647 27.2354 56.7741 27.2354H54.6235C52.9666 27.2354 51.6235 25.8923 51.6235 24.2354V21.7452C51.6235 21.2309 51.7106 20.7369 51.8708 20.2772C52.1746 19.4059 53.1078 19 54.0306 19H57.208C58.8649 19 60.208 20.3431 60.208 22V24.54ZM56.7741 27.9217C58.227 27.9217 60.208 28.9169 60.208 30.3697V51C60.208 52.6569 58.8649 54 57.208 54H33.6777C32.0209 54 30.6777 52.6569 30.6777 51V22C30.6777 20.3431 32.0209 19 33.6777 19H48.8339C50.0906 19 50.9367 20.4885 50.9367 21.7452V24.9217C50.9367 26.5785 52.2799 27.9217 53.9367 27.9217H56.7741ZM32.7366 23.804C32.7366 23.4249 33.0441 23.1177 33.4234 23.1177H47.1584C47.5377 23.1177 47.8452 23.4249 47.8452 23.804C47.8452 24.183 47.5377 24.4902 47.1584 24.4902H33.4234C33.0441 24.4902 32.7366 24.183 32.7366 23.804ZM32.7366 27.2353C32.7366 26.8563 33.0441 26.5491 33.4234 26.5491H47.1584C47.5377 26.5491 47.8452 26.8563 47.8452 27.2353C47.8452 27.6144 47.5377 27.9216 47.1584 27.9216H33.4234C33.0441 27.9216 32.7366 27.6144 32.7366 27.2353ZM33.4234 29.9804C33.0441 29.9804 32.7366 30.2877 32.7366 30.6667C32.7366 31.0457 33.0441 31.353 33.4234 31.353H57.4597C57.839 31.353 58.1464 31.0457 58.1464 30.6667C58.1464 30.2877 57.839 29.9804 57.4597 29.9804H33.4234ZM32.7366 34.0981C32.7366 33.7191 33.0441 33.4118 33.4234 33.4118H57.4597C57.839 33.4118 58.1464 33.7191 58.1464 34.0981C58.1464 34.4771 57.839 34.7844 57.4597 34.7844H33.4234C33.0441 34.7844 32.7366 34.4771 32.7366 34.0981ZM33.4234 36.8432C33.0441 36.8432 32.7366 37.1504 32.7366 37.5295C32.7366 37.9085 33.0441 38.2157 33.4234 38.2157H57.4597C57.839 38.2157 58.1464 37.9085 58.1464 37.5295C58.1464 37.1504 57.839 36.8432 57.4597 36.8432H33.4234ZM32.7366 40.9608C32.7366 40.5818 33.0441 40.2746 33.4234 40.2746H57.4597C57.839 40.2746 58.1464 40.5818 58.1464 40.9608C58.1464 41.3398 57.839 41.6471 57.4597 41.6471H33.4234C33.0441 41.6471 32.7366 41.3398 32.7366 40.9608ZM33.4234 43.7059C33.0441 43.7059 32.7366 44.0132 32.7366 44.3922C32.7366 44.7712 33.0441 45.0785 33.4234 45.0785H57.4597C57.839 45.0785 58.1464 44.7712 58.1464 44.3922C58.1464 44.0132 57.839 43.7059 57.4597 43.7059H33.4234ZM32.7366 47.8236C32.7366 47.4446 33.0441 47.1373 33.4234 47.1373H57.4597C57.839 47.1373 58.1464 47.4446 58.1464 47.8236C58.1464 48.2026 57.839 48.5098 57.4597 48.5098H33.4234C33.0441 48.5098 32.7366 48.2026 32.7366 47.8236ZM33.4234 50.5687C33.0441 50.5687 32.7366 50.8759 32.7366 51.2549C32.7366 51.634 33.0441 51.9412 33.4234 51.9412H57.4597C57.839 51.9412 58.1464 51.634 58.1464 51.2549C58.1464 50.8759 57.839 50.5687 57.4597 50.5687H33.4234Z" fill="#F8FAFD"/>
<defs>
<filter id="filter0_d_120_1448" x="0.664062" y="0" width="89.0479" height="84" filterUnits="userSpaceOnUse" color-interpolation-filters="sRGB">
<feFlood flood-opacity="0" result="BackgroundImageFix"/>
<feColorMatrix in="SourceAlpha" type="matrix" values="0 0 0 0 0 0 0 0 0 0 0 0 0 0 0 0 0 0 127 0" result="hardAlpha"/>
<feOffset dy="5"/>
<feGaussianBlur stdDeviation="5"/>
<feColorMatrix type="matrix" values="0 0 0 0 0.117647 0 0 0 0 0.584314 0 0 0 0 0.607843 0 0 0 0.5 0"/>
<feBlend mode="normal" in2="BackgroundImageFix" result="effect1_dropShadow_120_1448"/>
<feBlend mode="normal" in="SourceGraphic" in2="effect1_dropShadow_120_1448" result="shape"/>
</filter>
<linearGradient id="paint0_linear_120_1448" x1="79.712" y1="37" x2="10.6641" y2="37" gradientUnits="userSpaceOnUse">
<stop stop-color="#1E959B"/>
<stop offset="1" stop-color="#AFDEDE"/>
</linearGradient>
</defs>
</svg>
