<svg width="47" height="35" viewBox="0 0 47 35" fill="none" xmlns="http://www.w3.org/2000/svg">
<g clip-path="url(#clip0_120_1387)">
<path d="M29.8936 17.956L43.1097 26.3111V9.24817L29.8936 17.956Z" fill="#1E959B"/>
<path d="M3.90723 9.24817V26.3111L17.1234 17.956L3.90723 9.24817Z" fill="#1E959B"/>
<path d="M40.6593 4.2793H6.35712C5.13449 4.2793 4.16423 5.19075 3.98047 6.36438L23.5082 19.2302L43.036 6.36438C42.8522 5.19075 41.8819 4.2793 40.6593 4.2793Z" fill="#1E959B"/>
<path d="M27.649 19.4359L24.182 21.7195C23.9762 21.8542 23.7434 21.9204 23.5082 21.9204C23.273 21.9204 23.0402 21.8542 22.8344 21.7195L19.3674 19.4335L3.98535 29.163C4.17401 30.3269 5.13938 31.231 6.3571 31.231H40.6593C41.877 31.231 42.8424 30.3269 43.031 29.163L27.649 19.4359Z" fill="#1E959B"/>
</g>
<defs>
<clipPath id="clip0_120_1387">
<rect width="46.2903" height="35" fill="white"/>
</clipPath>
</defs>
</svg>
