<svg width="160" height="32" viewBox="0 0 160 32" fill="none" xmlns="http://www.w3.org/2000/svg">
<path d="M39.408 13.424H42.048V15.36H39.408V18H37.472V15.36H34.848V13.424H37.472V10.8H39.408V13.424ZM41.8018 10.912V8.8H49.0338V10.672L45.2418 20H42.9058L46.5858 10.912H41.8018ZM60.4455 14.176C61.4802 14.7947 61.9975 15.696 61.9975 16.88C61.9975 17.9147 61.6348 18.7307 60.9095 19.328C60.1948 19.9253 59.2188 20.224 57.9815 20.224C56.7335 20.224 55.7522 19.9253 55.0375 19.328C54.3228 18.7307 53.9655 17.9147 53.9655 16.88C53.9655 15.7067 54.4775 14.8053 55.5015 14.176C54.7228 13.6213 54.3335 12.848 54.3335 11.856C54.3335 10.8213 54.6802 10.016 55.3735 9.44C56.0775 8.864 56.9468 8.576 57.9815 8.576C59.0268 8.576 59.8908 8.864 60.5735 9.44C61.2668 10.016 61.6135 10.8213 61.6135 11.856C61.6135 12.848 61.2242 13.6213 60.4455 14.176ZM59.4215 11.968C59.4215 11.5627 59.2882 11.2427 59.0215 11.008C58.7548 10.7733 58.4082 10.656 57.9815 10.656C57.5548 10.656 57.2082 10.7733 56.9415 11.008C56.6748 11.2427 56.5415 11.5627 56.5415 11.968C56.5415 12.384 56.6748 12.7093 56.9415 12.944C57.2082 13.1787 57.5548 13.296 57.9815 13.296C58.4082 13.296 58.7548 13.1787 59.0215 12.944C59.2882 12.7093 59.4215 12.384 59.4215 11.968ZM59.3095 17.728C59.6402 17.4507 59.8055 17.072 59.8055 16.592C59.8055 16.112 59.6402 15.7387 59.3095 15.472C58.9788 15.1947 58.5362 15.056 57.9815 15.056C57.4268 15.056 56.9842 15.1947 56.6535 15.472C56.3228 15.7387 56.1575 16.112 56.1575 16.592C56.1575 17.072 56.3228 17.4507 56.6535 17.728C56.9842 18.0053 57.4268 18.144 57.9815 18.144C58.5362 18.144 58.9788 18.0053 59.3095 17.728ZM67.5713 20.224C66.1739 20.224 65.0753 19.696 64.2753 18.64C63.4859 17.5627 63.0913 16.1493 63.0913 14.4C63.0913 12.6507 63.4859 11.2427 64.2753 10.176C65.0753 9.10933 66.1739 8.576 67.5713 8.576C68.9899 8.576 70.0886 9.10933 70.8673 10.176C71.6566 11.2427 72.0513 12.6507 72.0513 14.4C72.0513 16.1493 71.6566 17.5627 70.8673 18.64C70.0886 19.696 68.9899 20.224 67.5713 20.224ZM69.8593 14.4C69.8593 13.2053 69.6619 12.2933 69.2673 11.664C68.8833 11.0347 68.3179 10.72 67.5713 10.72C66.8246 10.72 66.2593 11.0347 65.8753 11.664C65.4913 12.2933 65.2993 13.2053 65.2993 14.4C65.2993 15.5947 65.4913 16.5067 65.8753 17.136C66.2593 17.7547 66.8246 18.064 67.5713 18.064C68.3179 18.064 68.8833 17.7493 69.2673 17.12C69.6619 16.4907 69.8593 15.584 69.8593 14.4ZM77.6494 20.224C76.252 20.224 75.1534 19.696 74.3534 18.64C73.564 17.5627 73.1694 16.1493 73.1694 14.4C73.1694 12.6507 73.564 11.2427 74.3534 10.176C75.1534 9.10933 76.252 8.576 77.6494 8.576C79.068 8.576 80.1667 9.10933 80.9454 10.176C81.7347 11.2427 82.1294 12.6507 82.1294 14.4C82.1294 16.1493 81.7347 17.5627 80.9454 18.64C80.1667 19.696 79.068 20.224 77.6494 20.224ZM79.9374 14.4C79.9374 13.2053 79.74 12.2933 79.3454 11.664C78.9614 11.0347 78.396 10.72 77.6494 10.72C76.9027 10.72 76.3374 11.0347 75.9534 11.664C75.5694 12.2933 75.3774 13.2053 75.3774 14.4C75.3774 15.5947 75.5694 16.5067 75.9534 17.136C76.3374 17.7547 76.9027 18.064 77.6494 18.064C78.396 18.064 78.9614 17.7493 79.3454 17.12C79.74 16.4907 79.9374 15.584 79.9374 14.4ZM94.4315 10.624L92.3355 13.344C93.1142 13.568 93.7328 13.9627 94.1915 14.528C94.6608 15.0933 94.8955 15.7653 94.8955 16.544C94.8955 17.696 94.5062 18.5973 93.7275 19.248C92.9702 19.8987 92.0262 20.224 90.8955 20.224C90.0102 20.224 89.2262 20.0213 88.5435 19.616C87.8608 19.2 87.3648 18.6133 87.0555 17.856L88.9435 16.768C89.2102 17.632 89.8608 18.064 90.8955 18.064C91.4608 18.064 91.8982 17.9307 92.2075 17.664C92.5275 17.3867 92.6875 17.0133 92.6875 16.544C92.6875 16.0853 92.5275 15.7173 92.2075 15.44C91.8982 15.1627 91.4608 15.024 90.8955 15.024H90.4155L89.5675 13.744L91.7755 10.864H87.3915V8.8H94.4315V10.624ZM100.446 20.224C99.0489 20.224 97.9503 19.696 97.1503 18.64C96.3609 17.5627 95.9663 16.1493 95.9663 14.4C95.9663 12.6507 96.3609 11.2427 97.1503 10.176C97.9503 9.10933 99.0489 8.576 100.446 8.576C101.865 8.576 102.964 9.10933 103.742 10.176C104.532 11.2427 104.926 12.6507 104.926 14.4C104.926 16.1493 104.532 17.5627 103.742 18.64C102.964 19.696 101.865 20.224 100.446 20.224ZM102.734 14.4C102.734 13.2053 102.537 12.2933 102.142 11.664C101.758 11.0347 101.193 10.72 100.446 10.72C99.6996 10.72 99.1343 11.0347 98.7503 11.664C98.3663 12.2933 98.1743 13.2053 98.1743 14.4C98.1743 15.5947 98.3663 16.5067 98.7503 17.136C99.1343 17.7547 99.6996 18.064 100.446 18.064C101.193 18.064 101.758 17.7493 102.142 17.12C102.537 16.4907 102.734 15.584 102.734 14.4ZM105.348 9.84L108.292 8.8H110.212V20H108.004V11.136L105.892 11.728L105.348 9.84ZM118.399 16.16H112.399V14.176H118.399V16.16ZM118.521 10.912V8.8H125.753V10.672L121.961 20H119.625L123.305 10.912H118.521ZM134.636 12.464C134.636 13.328 134.412 14.0853 133.964 14.736H133.98L130.492 20H127.964L130.46 16.352C129.298 16.3413 128.348 15.9733 127.612 15.248C126.887 14.5227 126.524 13.5947 126.524 12.464C126.524 11.312 126.898 10.3787 127.644 9.664C128.402 8.93867 129.378 8.576 130.572 8.576C131.767 8.576 132.743 8.93867 133.5 9.664C134.258 10.3893 134.636 11.3227 134.636 12.464ZM128.716 12.464C128.716 13.008 128.892 13.4507 129.244 13.792C129.596 14.1227 130.039 14.288 130.572 14.288C131.127 14.288 131.575 14.1227 131.916 13.792C132.268 13.4507 132.444 13.008 132.444 12.464C132.444 11.92 132.268 11.4827 131.916 11.152C131.575 10.8213 131.127 10.656 130.572 10.656C130.039 10.656 129.596 10.8267 129.244 11.168C128.892 11.4987 128.716 11.9307 128.716 12.464ZM142.04 16.16H136.04V14.176H142.04V16.16ZM150.998 20H143.51V18.352L147.334 14.416C148.187 13.5093 148.614 12.7627 148.614 12.176C148.614 11.7387 148.475 11.3867 148.198 11.12C147.931 10.8533 147.585 10.72 147.158 10.72C146.305 10.72 145.681 11.1573 145.286 12.032L143.43 10.944C143.771 10.1867 144.267 9.60533 144.918 9.2C145.579 8.784 146.315 8.576 147.126 8.576C148.139 8.576 149.009 8.896 149.734 9.536C150.459 10.1653 150.822 11.0187 150.822 12.096C150.822 13.2587 150.209 14.4533 148.982 15.68L146.79 17.872H150.998V20ZM151.474 10.912V8.8H158.706V10.672L154.914 20H152.578L156.258 10.912H151.474Z" fill="#1E959B"/>
<path d="M15.637 0H2.305C1.03 0 0 1.034 0 2.309V29.379C0 30.65 1.03 31.685 2.305 31.685H15.637C16.91 31.685 17.944 30.651 17.944 29.379V2.309C17.943 1.034 16.91 0 15.637 0ZM16.215 25.672H1.729V3.895H16.215V25.672ZM12.062 2.343H5.88099V1.669H12.063L12.062 2.343ZM14.707 2.035C14.707 2.361 14.441 2.625 14.116 2.625C13.79 2.625 13.525 2.36 13.525 2.035C13.525 1.71 13.79 1.445 14.116 1.445C14.442 1.444 14.707 1.709 14.707 2.035ZM11.785 29.225H6.15599V27.493H11.785V29.225Z" fill="#1E959B"/>
</svg>
