<svg width="48" height="34" viewBox="0 0 48 34" fill="none" xmlns="http://www.w3.org/2000/svg">
<path d="M45.6562 10.4375C44.7934 10.4375 44.0938 11.1372 44.0938 12V30.4375H38.4688V11.5991L46.862 3.2058C47.4722 2.59564 47.4722 1.60626 46.862 0.995952C46.2517 0.385952 45.2627 0.385952 44.6522 0.995952L28.1628 17.4855L18.6198 7.94267C18.0095 7.33267 17.0205 7.33267 16.41 7.94267L3.46875 20.8839V8.29767C3.46875 7.43486 2.76906 6.73517 1.90625 6.73517C1.04344 6.73517 0.34375 7.43486 0.34375 8.29767V32C0.34375 32.8628 1.04344 33.5625 1.90625 33.5625H45.6562C46.5191 33.5625 47.2188 32.8628 47.2188 32V12C47.2188 11.1372 46.5191 10.4375 45.6562 10.4375ZM9.09375 30.4375H3.46875V25.3036L9.09375 19.6786V30.4375ZM17.8438 30.4375H12.2188V16.5535L17.515 11.2572L17.8438 11.586V30.4375ZM26.5938 30.4375H20.9688V14.7111L26.5938 20.3361V30.4375ZM35.3438 30.4375H29.7188V20.3492L35.3438 14.7242V30.4375Z" fill="#1E959B"/>
</svg>
