<svg width="239" height="58" viewBox="0 0 239 58" fill="none" xmlns="http://www.w3.org/2000/svg">
<path d="M212.01 57.201H211.824L137.881 51.8428L46.9532 56.0259L46.8602 55.9789L1.48926 28.295L2.18727 27.966L63.6125 1.36304H63.659L134.391 5.49918L216.617 3.1491L216.757 3.2901L237.744 28.342L237.511 28.624L212.01 57.201ZM137.928 51.0438L211.685 56.4019L236.72 28.342L216.291 3.99513L134.391 6.34521L63.7521 2.20907L3.21103 28.436L47.1394 55.2269L137.928 51.0438Z" fill="url(#paint0_linear_120_1226)"/>
<path d="M212.336 57.53L211.638 57.06L186.416 40.4684L138.625 51.5608L139.044 51.8428L138.253 51.7018V52.0308L137.834 51.7488L137.695 51.8428V51.7488L136.206 52.0778L137.043 51.6078L73.6635 40.7974L46.441 56.2609L46.7202 55.4619L52.3974 37.1783L0.37207 28.342L58.1676 18.5186L63.5191 1.26904L63.8913 1.50405L83.0169 14.2885L133.507 5.6872L132.762 5.17018L134.065 5.45219V5.35818L134.298 5.49919L134.623 5.31118V5.54619L135.694 5.35818L135.228 5.64019L202.796 15.0405H202.843L203.029 15.0875L216.477 3.14911L216.943 3.66613L204.006 15.1345H204.425L203.959 15.4165L237.325 28.06L237.511 28.107L237.883 28.248L238.395 28.342L238.255 28.389L238.348 28.436L237.278 28.718L207.682 35.5802L212.336 57.53ZM187.3 40.3274L211.312 56.1199L207.031 35.7212L187.3 40.3274ZM53.0489 37.3193L47.6044 54.8979L72.5933 40.6564L53.0489 37.3193ZM134.763 6.58023L138.207 50.9028L172.968 31.6791L134.763 6.58023ZM74.5942 40.3274L136.392 50.8558L99.4901 26.1329L74.5942 40.3274ZM100.142 25.7569L137.509 50.7618L134.065 6.43922L100.142 25.7569ZM173.619 32.1021L140.208 50.5737L185.672 39.9984L173.619 32.1021ZM53.235 36.6613L73.5239 40.1394L98.8386 25.7099L82.8308 14.9935L58.6795 19.0827L53.235 36.6613ZM174.271 31.7261L186.556 39.7634L206.938 35.0162L204.099 21.4327L196.095 19.6937L174.271 31.7261ZM4.37402 28.342L52.5835 36.5673L57.935 19.2237L4.37402 28.342ZM204.751 21.6207L207.543 34.9222L235.649 28.389L204.751 21.6207ZM136.066 6.62723L173.619 31.3031L195.025 19.5057L136.066 6.62723ZM204.611 20.8687L232.811 27.0259L203.541 15.9336L204.611 20.8687ZM83.808 14.8525L99.5366 25.3809L132.576 6.58023L83.808 14.8525ZM196.933 19.2237L203.913 20.7277L202.889 15.9336L196.933 19.2237ZM142.953 7.42626L195.909 18.9887L202.052 15.6045L198.096 15.0405L142.953 7.42626ZM63.8913 2.30308L58.9122 18.3776L82.0397 14.4295L63.8913 2.30308Z" fill="url(#paint1_linear_120_1226)"/>
<path d="M134.391 7.09727C135.033 7.09727 135.554 6.57119 135.554 5.92223C135.554 5.27328 135.033 4.74719 134.391 4.74719C133.748 4.74719 133.228 5.27328 133.228 5.92223C133.228 6.57119 133.748 7.09727 134.391 7.09727Z" fill="#1E959B"/>
<path d="M47.0466 57.389C48.0232 57.389 48.8149 56.5894 48.8149 55.603C48.8149 54.6165 48.0232 53.8169 47.0466 53.8169C46.07 53.8169 45.2783 54.6165 45.2783 55.603C45.2783 56.5894 46.07 57.389 47.0466 57.389Z" fill="#1E959B"/>
<path d="M211.824 58C212.467 58 212.988 57.4739 212.988 56.8249C212.988 56.176 212.467 55.6499 211.824 55.6499C211.182 55.6499 210.661 56.176 210.661 56.8249C210.661 57.4739 211.182 58 211.824 58Z" fill="#1E959B"/>
<path d="M237.232 30.128C238.209 30.128 239 29.3284 239 28.342C239 27.3556 238.209 26.5559 237.232 26.5559C236.256 26.5559 235.464 27.3556 235.464 28.342C235.464 29.3284 236.256 30.128 237.232 30.128Z" fill="#1E959B"/>
<path d="M216.478 5.68718C217.634 5.68718 218.572 4.74023 218.572 3.5721C218.572 2.40398 217.634 1.45703 216.478 1.45703C215.321 1.45703 214.384 2.40398 214.384 3.5721C214.384 4.74023 215.321 5.68718 216.478 5.68718Z" fill="#1E959B"/>
<path d="M137.928 53.8639C139.239 53.8639 140.301 52.7907 140.301 51.4668C140.301 50.1429 139.239 49.0697 137.928 49.0697C136.617 49.0697 135.555 50.1429 135.555 51.4668C135.555 52.7907 136.617 53.8639 137.928 53.8639Z" fill="#1E959B"/>
<path d="M2.37325 30.7391C3.68396 30.7391 4.7465 29.6659 4.7465 28.342C4.7465 27.0182 3.68396 25.9449 2.37325 25.9449C1.06254 25.9449 0 27.0182 0 28.342C0 29.6659 1.06254 30.7391 2.37325 30.7391Z" fill="#1E959B"/>
<path d="M63.7058 3.57212C64.6824 3.57212 65.4741 2.77248 65.4741 1.78606C65.4741 0.799647 64.6824 0 63.7058 0C62.7292 0 61.9375 0.799647 61.9375 1.78606C61.9375 2.77248 62.7292 3.57212 63.7058 3.57212Z" fill="#1E959B"/>
<path d="M32.1086 15.3695C33.7373 16.1215 34.9472 17.1556 35.8313 18.5186C36.7155 19.8817 37.1343 21.4797 37.1343 23.3128C37.1343 25.1458 36.7155 26.7439 35.8313 28.1069C34.9472 29.47 33.7373 30.504 32.1086 31.256C30.4799 31.9611 28.6185 32.3371 26.4314 32.3371H21.4057V39.1993H15.7285V14.2885H26.3849C28.572 14.2885 30.4799 14.6175 32.1086 15.3695ZM30.0145 26.5089C30.8987 25.7569 31.364 24.7228 31.364 23.3128C31.364 21.9027 30.8987 20.8217 30.0145 20.0697C29.1304 19.3176 27.8274 18.9416 26.1057 18.9416H21.4522V27.5899H26.1057C27.7809 27.6369 29.0839 27.2609 30.0145 26.5089ZM50.3035 33.7001H46.9065V39.1993H41.3224V18.7066H50.5361C53.3282 18.7066 55.5619 19.3646 57.1906 20.7277C58.8192 22.0907 59.6569 23.9238 59.6569 26.2739C59.6569 27.7779 59.2846 29.047 58.5866 30.175C57.8886 31.256 56.8648 32.1491 55.5619 32.7601L60.0757 39.1993H54.0728L50.3035 33.7001ZM53.0955 23.9238C52.4441 23.3598 51.4668 23.1248 50.1639 23.1248H46.9065V29.47H50.1639C51.4668 29.47 52.4441 29.188 53.0955 28.671C53.747 28.1069 54.0728 27.3549 54.0728 26.3209C54.0728 25.2398 53.747 24.4408 53.0955 23.9238ZM68.0796 38.2123C66.4043 37.3663 65.0083 36.0502 64.0311 34.4052C63.0539 32.8071 62.542 30.974 62.542 28.953C62.542 26.9319 63.0539 25.0988 64.0311 23.5008C65.0083 21.8557 66.4043 20.5397 68.0796 19.6937C69.8013 18.8006 71.7558 18.3306 73.8964 18.3306C76.0369 18.3306 77.9914 18.8006 79.7131 19.6937C81.3884 20.5397 82.7844 21.9027 83.7616 23.5008C84.7388 25.1458 85.2507 26.9319 85.2507 28.953C85.2507 30.974 84.7388 32.8071 83.7616 34.4052C82.7844 36.0032 81.3884 37.3193 79.7131 38.2123C77.9914 39.1053 76.0369 39.5753 73.8964 39.5753C71.7558 39.5753 69.8013 39.1053 68.0796 38.2123ZM76.8745 34.2172C77.7587 33.7001 78.4567 32.9481 78.9221 32.0551C79.4339 31.115 79.6666 30.034 79.6666 28.953C79.6666 27.7779 79.4339 26.7439 78.9221 25.8509C78.4567 24.9578 77.7122 24.2058 76.8745 23.6888C75.0597 22.6548 72.8261 22.6548 71.0112 23.6888C70.1271 24.2058 69.4291 24.9578 68.9172 25.8509C68.4053 26.7439 68.1726 27.8249 68.1726 28.953C68.1726 30.034 68.4053 31.068 68.9172 32.0551C69.3825 32.9481 70.1271 33.7001 71.0112 34.2172C72.7795 35.2512 75.0132 35.2512 76.8745 34.2172ZM89.2527 18.7066H98.7922C101.072 18.7066 103.12 19.1296 104.842 19.9287C106.563 20.7277 107.913 21.9497 108.89 23.5008C109.821 25.0518 110.333 26.8379 110.333 28.953C110.333 31.021 109.867 32.8071 108.89 34.3582C107.959 35.9092 106.61 37.0842 104.842 37.9303C103.12 38.7763 101.072 39.1993 98.7922 39.1993H89.2527V18.7066ZM98.606 34.7812C100.467 34.7812 101.957 34.2642 103.027 33.2771C104.097 32.2901 104.655 30.833 104.655 29C104.655 27.1669 104.097 25.7099 103.027 24.6758C101.957 23.6418 100.467 23.1248 98.606 23.1248H94.7902V34.7812H98.606ZM116.615 37.1313C114.94 35.4862 114.102 33.2301 114.102 30.363V18.7066H119.686V30.175C119.686 31.7731 120.012 32.9481 120.71 33.7471C121.408 34.5462 122.432 34.9692 123.781 34.9692C125.084 34.9692 126.108 34.5462 126.759 33.7471C127.457 32.9481 127.783 31.7261 127.783 30.175V18.7066H133.274V30.363C133.274 33.2301 132.436 35.4862 130.761 37.1313C129.086 38.7763 126.713 39.5753 123.688 39.5753C120.663 39.5753 118.29 38.7763 116.615 37.1313ZM142.488 38.2123C140.813 37.3663 139.417 36.0502 138.439 34.4052C137.462 32.8071 136.95 30.974 136.95 28.953C136.95 26.9319 137.462 25.0988 138.439 23.5008C139.417 21.9027 140.813 20.5867 142.488 19.6937C144.21 18.8006 146.118 18.3306 148.258 18.3306C150.213 18.3306 151.888 18.6126 153.33 19.2236C154.773 19.8347 155.983 20.7747 157.007 22.0907L153.423 25.3808C152.074 23.7358 150.445 22.9368 148.491 22.9368C146.769 22.9368 145.373 23.5008 144.256 24.6288C143.139 25.7569 142.581 27.2139 142.581 29C142.581 30.175 142.814 31.256 143.325 32.1491C143.791 33.0421 144.535 33.7941 145.42 34.2642C146.35 34.7812 147.421 35.0162 148.491 35.0162C150.445 35.0162 152.074 34.2172 153.423 32.5721L157.007 35.8622C156.029 37.1313 154.773 38.0713 153.33 38.6823C151.888 39.2933 150.213 39.5753 148.258 39.5753C146.164 39.5753 144.21 39.1053 142.488 38.2123ZM164.312 23.0778H157.937V18.7066H176.272V23.0778H169.897V39.1523H164.312V23.0778ZM183.066 16.5445V26.3209H195.816V28.577H183.066V39.1523H180.46V14.2415H197.352V16.4975L183.066 16.5445ZM202.145 19.0826H204.658V39.1993H202.145V19.0826ZM215.547 21.1977H208.52V19.0826H225.086V21.1977H218.06V39.1993H215.547V21.1977ZM201.819 14.9465C201.4 15.8395 201.819 16.9206 202.703 17.2966C203.587 17.7196 204.658 17.2966 205.03 16.4035C205.449 15.5105 205.03 14.4295 204.146 14.0535C203.262 13.6304 202.191 14.0065 201.819 14.9465Z" fill="#1E959B"/>
<defs>
<linearGradient id="paint0_linear_120_1226" x1="1.48972" y1="29.3011" x2="237.74" y2="29.3011" gradientUnits="userSpaceOnUse">
<stop stop-color="#AFDBDE"/>
<stop offset="1" stop-color="#C7E5E7"/>
</linearGradient>
<linearGradient id="paint1_linear_120_1226" x1="0.349408" y1="29.3997" x2="238.374" y2="29.3997" gradientUnits="userSpaceOnUse">
<stop stop-color="#AFDBDE"/>
<stop offset="1" stop-color="#C7E5E7"/>
</linearGradient>
</defs>
</svg>
