<svg width="260" height="40" viewBox="0 0 260 40" fill="none" xmlns="http://www.w3.org/2000/svg">
<g clip-path="url(#clip0_120_1510)">
<path d="M76.5742 0.845215L81.4126 11.7639L86.222 0.964562H90.6475L95.4472 11.7639L100.27 0.845215H105.108L97.8664 17.1603H93.4248L88.4348 6.37068L83.4448 17.1603H79.0063L71.752 0.845215H76.5742Z" fill="white"/>
<path d="M131.477 0.845162C132.849 0.8122 134.181 1.31157 135.193 2.23862C135.681 2.65474 136.071 3.17359 136.334 3.75801C136.598 4.34243 136.729 4.97796 136.719 5.61906V12.3928C136.729 13.0321 136.597 13.6656 136.334 14.2483C136.071 14.831 135.682 15.3483 135.196 15.7636C134.184 16.6909 132.853 17.1903 131.48 17.157H118.71C117.34 17.1868 116.01 16.6878 114.997 15.7636C114.516 15.345 114.131 14.8267 113.87 14.2447C113.609 13.6626 113.477 13.0308 113.485 12.3928V5.61906C113.479 4.9804 113.612 4.34812 113.875 3.76606C114.138 3.184 114.524 2.6661 115.007 2.2483C116.016 1.32286 117.342 0.820513 118.71 0.845162H131.477ZM118.546 5.03845C118.35 5.20268 118.194 5.40889 118.089 5.64176C117.984 5.87463 117.933 6.12817 117.939 6.38352V11.6251C117.938 11.8816 117.992 12.1353 118.096 12.3694C118.201 12.6036 118.354 12.8128 118.546 12.9831C118.959 13.3417 119.489 13.5358 120.036 13.5282H130.171C130.718 13.5232 131.245 13.3257 131.661 12.9702C131.852 12.8018 132.004 12.5948 132.109 12.3629C132.213 12.131 132.267 11.8795 132.267 11.6251V6.3803C132.273 6.12366 132.222 5.86898 132.117 5.63468C132.012 5.40038 131.856 5.19231 131.661 5.02554C131.465 4.83396 131.232 4.68602 130.975 4.59149C130.718 4.49697 130.444 4.45801 130.171 4.47719H120.036C119.763 4.46609 119.49 4.50974 119.234 4.60557C118.978 4.70141 118.744 4.84749 118.546 5.03522V5.03845Z" fill="white"/>
<path d="M163.695 0.845226C165.069 0.810247 166.404 1.30977 167.417 2.23869C167.904 2.65556 168.292 3.17472 168.555 3.75907C168.817 4.34342 168.948 4.97856 168.936 5.61912V12.3929C168.947 13.0324 168.816 13.6664 168.554 14.2496C168.291 14.8328 167.903 15.3508 167.417 15.7669C166.405 16.6945 165.074 17.194 163.701 17.1603H150.941C149.569 17.1909 148.238 16.6919 147.225 15.7669C146.741 15.3489 146.354 14.8305 146.092 14.2478C145.829 13.6651 145.696 13.0321 145.702 12.3929V5.61912C145.696 4.98047 145.83 4.34818 146.093 3.76612C146.355 3.18406 146.742 2.66617 147.225 2.24836C148.238 1.32363 149.569 0.824623 150.941 0.854903L163.695 0.845226ZM150.763 5.03851C150.568 5.20259 150.411 5.40878 150.306 5.64168C150.201 5.87459 150.15 6.1282 150.157 6.38359V11.6252C150.156 11.8817 150.209 12.1354 150.314 12.3696C150.418 12.6038 150.572 12.813 150.763 12.9832C151.176 13.3421 151.707 13.5362 152.254 13.5283H162.385C162.931 13.5228 163.458 13.3253 163.872 12.9703C164.063 12.8019 164.216 12.5949 164.32 12.363C164.425 12.1311 164.479 11.8796 164.479 11.6252V6.38036C164.484 6.12372 164.433 5.86904 164.328 5.63474C164.223 5.40044 164.067 5.19238 163.872 5.02561C163.677 4.83444 163.444 4.68675 163.187 4.59224C162.931 4.49773 162.658 4.45854 162.385 4.47726H152.257C151.983 4.46571 151.71 4.50915 151.454 4.605C151.197 4.70085 150.962 4.84716 150.763 5.03529V5.03851Z" fill="white"/>
<path d="M199.269 0.845215V4.47725H190.815V17.1571H186.36V4.47725H177.919V0.845215H199.269Z" fill="white"/>
<path d="M228.381 0.845215V4.47725H212.698V7.14482H226.297V10.7156H212.698V13.5251H228.381V17.1571H208.243V0.845215H228.381Z" fill="white"/>
<path d="M253.378 0.845194C254.874 0.813296 256.324 1.35984 257.426 2.3709C257.958 2.8249 258.384 3.38951 258.674 4.02524C258.964 4.66098 259.112 5.35247 259.107 6.05132C259.112 6.69555 258.987 7.33414 258.737 7.9281C258.487 8.52206 258.119 9.05893 257.656 9.50594C256.676 10.4646 255.398 11.0579 254.033 11.1865L259.346 17.1603H254.165L249.259 11.2413H241.815V17.1603H237.363V0.845194H253.378ZM241.815 7.64477H252.949C253.178 7.65635 253.406 7.62208 253.621 7.54397C253.836 7.46585 254.033 7.34548 254.201 7.18996C254.361 7.04706 254.488 6.87067 254.572 6.67332C254.656 6.47597 254.696 6.26251 254.688 6.04809C254.7 5.8331 254.663 5.61816 254.578 5.42007C254.494 5.22199 254.365 5.04613 254.201 4.90623C254.037 4.74572 253.84 4.62321 253.624 4.54739C253.408 4.47157 253.177 4.44431 252.949 4.46755H241.815V7.64477Z" fill="white"/>
<path d="M81.761 24.7405L81.7029 24.6502H80.8546L80.8127 24.7147L71.752 39.0203H72.7003L74.9292 35.5205H87.6671L89.8702 39.0203H90.8379L81.761 24.7405ZM75.3421 34.8657L81.2933 25.4727L87.2284 34.8625L75.3421 34.8657Z" fill="white"/>
<path d="M100.243 39.0203V24.6502H114.339C115.175 24.6367 116 24.8342 116.739 25.2243C117.433 25.5739 118.019 26.1044 118.436 26.7597C118.829 27.3639 119.036 28.0708 119.029 28.7919C119.029 29.5241 118.832 30.6982 118.429 31.3272C118.018 31.9788 117.437 32.5062 116.749 32.8529C116.006 33.2387 115.179 33.4338 114.342 33.4206H101.23V39.0235L100.243 39.0203ZM101.233 32.7626H113.978C114.945 32.7271 116.307 32.4174 116.968 31.8465L117.003 31.8143C117.72 31.1691 118.097 29.7757 118.097 28.7919C118.108 28.3164 118.015 27.8442 117.825 27.4084C117.634 26.9726 117.351 26.5839 116.994 26.2694C116.329 25.6533 114.949 25.3308 113.962 25.3308H101.23L101.233 32.7626Z" fill="white"/>
<path d="M128.587 39.0203V24.6502H142.683C143.518 24.6367 144.344 24.8342 145.083 25.2243C145.776 25.5739 146.362 26.1044 146.779 26.7597C147.173 27.3638 147.38 28.0708 147.373 28.7919C147.373 29.5241 147.176 30.6982 146.773 31.3272C146.361 31.9788 145.781 32.5062 145.092 32.8529C144.35 33.2387 143.523 33.4338 142.686 33.4206H129.574V39.0235L128.587 39.0203ZM129.577 32.7626H142.322C143.289 32.7271 144.65 32.4174 145.312 31.8465L145.347 31.8143C146.063 31.1691 146.441 29.7757 146.441 28.7919C146.452 28.3161 146.358 27.8438 146.167 27.408C145.976 26.9722 145.692 26.5836 145.334 26.2694C144.67 25.6533 143.289 25.3308 142.302 25.3308H129.574L129.577 32.7626Z" fill="white"/>
<path d="M166.79 24.7405L166.732 24.6502H165.884L165.842 24.7147L156.771 39.0203H157.739L159.968 35.5205H172.706L174.909 39.0203H175.877L166.79 24.7405ZM160.371 34.8657L166.323 25.476L172.254 34.8625L160.371 34.8657Z" fill="white"/>
<path d="M203.466 26.7597C203.049 26.1044 202.463 25.5739 201.769 25.2243C201.03 24.8342 200.205 24.6367 199.369 24.6502H185.273V39.0203H186.264V33.4174H196.934L201.479 39.0203H202.469L197.924 33.4174H199.369C200.206 33.4305 201.033 33.2354 201.776 32.8497C202.464 32.5029 203.045 31.9755 203.456 31.324C203.859 30.6982 204.056 29.5241 204.056 28.7886C204.063 28.069 203.858 27.3633 203.466 26.7597ZM202.037 31.811L202.001 31.8433C201.34 32.4142 199.992 32.7239 199.011 32.7594H186.264V25.3405H198.992C199.976 25.3405 201.36 25.663 202.024 26.2791C202.381 26.5932 202.666 26.9819 202.857 27.4177C203.048 27.8534 203.141 28.3258 203.13 28.8015C203.127 29.7724 202.75 31.1498 202.037 31.811Z" fill="white"/>
<path d="M231.342 24.6502V25.3824H215.665V31.424H229.248V32.0917H215.665V38.2881H231.342V39.0203H214.675V24.6502H231.342Z" fill="white"/>
<path d="M242.68 24.6502V39.0203H259.346V38.2881H243.67V24.6502H242.68Z" fill="white"/>
<path d="M61.3234 6.63675C56.9666 1.95156 50.108 0.0339366 43.8903 1.30482C39.7435 2.05929 36.1356 4.51011 33.1458 7.39735C32.3007 8.19181 30.1563 10.2339 28.012 12.4293C25.7089 14.7724 23.4055 17.2683 22.7133 18.4996C21.4369 21.1487 24.5796 24.4276 27.2517 23.0777C30.0031 21.4607 31.8866 18.7776 34.2125 16.6555C37.4688 13.6321 40.2199 9.63817 44.6393 8.25407C51.1518 6.37064 58.4642 11.2665 59.44 17.898C60.7447 24.825 54.5442 32.0126 47.4927 31.6552C44.0268 31.6552 40.9463 29.8056 38.5919 27.389C36.911 29.0971 35.1993 30.7747 33.4577 32.4209C36.096 34.934 39.1309 37.1126 42.6936 38.1222C50.0683 39.9885 58.5323 37.2429 63.031 31.0139C68.3636 23.9002 67.5695 12.9912 61.3234 6.63739V6.63675Z" fill="white"/>
<path d="M39.3349 16.7748C36.5835 18.3915 34.7001 21.0746 32.3741 23.1964C29.1178 26.22 26.3835 30.2137 21.9473 31.5981C15.4348 33.4815 8.12236 28.5854 7.14662 21.9539C5.84154 15.0272 12.0421 7.8399 19.0936 8.19698C22.5598 8.19698 25.6403 10.0465 27.9947 12.4632C29.6755 10.755 31.387 9.07744 33.1285 7.43122C30.4906 4.91815 27.4557 2.73958 23.893 1.72996C16.5183 -0.136371 8.0543 2.60926 3.55555 8.83823C-1.81669 15.9804 -0.982876 26.8952 5.25738 33.2319C9.6142 37.9177 16.4728 39.835 22.6905 38.5644C26.8431 37.8096 30.4455 35.3591 33.435 32.4716C34.2801 31.6774 36.4248 29.6353 38.5692 27.4396C40.8722 25.0969 43.1753 22.6006 43.8617 21.3697C45.1439 18.7034 42.0012 15.4243 39.3349 16.7745V16.7748Z" fill="white"/>
</g>
<defs>
<clipPath id="clip0_120_1510">
<rect width="259.346" height="38.2536" fill="white" transform="translate(0 0.806763)"/>
</clipPath>
</defs>
</svg>
