<svg width="35" height="35" viewBox="0 0 35 35" fill="none" xmlns="http://www.w3.org/2000/svg">
<path d="M18.2187 1.87502C14.2139 1.87502 10.5367 3.30408 7.66965 5.67861L7.64574 5.65471V2.29596C7.64574 1.43315 6.94606 0.733459 6.08324 0.733459C5.22043 0.733459 4.52074 1.43315 4.52074 2.29596V2.52971L3.18215 1.19111C2.57183 0.581113 1.58277 0.581113 0.972302 1.19111C0.362146 1.80127 0.362146 2.79065 0.972302 3.40096L2.3109 4.73955H2.07715C1.21434 4.73955 0.514648 5.43924 0.514648 6.30205C0.514648 7.16487 1.21434 7.86455 2.07715 7.86455H5.4359L5.4598 7.88846C3.08527 10.7555 1.65621 14.4327 1.65621 18.4375C1.65621 27.57 9.08621 35 18.2187 35C27.3512 35 34.7812 27.57 34.7812 18.4375C34.7812 9.30502 27.3512 1.87502 18.2187 1.87502ZM18.2187 31.875C10.8092 31.875 4.78121 25.8471 4.78121 18.4375C4.78121 15.2947 5.86855 12.4028 7.68308 10.1117L9.9098 12.3385C8.65168 14.0478 7.90621 16.1569 7.90621 18.4375C7.90621 24.1239 12.5323 28.75 18.2187 28.75C23.9051 28.75 28.5312 24.1239 28.5312 18.4375C28.5312 12.7511 23.9051 8.12502 18.2187 8.12502C15.9381 8.12502 13.829 8.87049 12.1196 10.1286L9.89293 7.9019C12.184 6.08736 15.0759 5.00002 18.2187 5.00002C25.6282 5.00002 31.6562 11.028 31.6562 18.4375C31.6562 25.8471 25.6282 31.875 18.2187 31.875ZM18.2187 23.125C20.8034 23.125 22.9062 21.0222 22.9062 18.4375C22.9062 15.8528 20.8034 13.75 18.2187 13.75C17.4961 13.75 16.8111 13.9147 16.199 14.2081L14.3657 12.3749C15.4803 11.6639 16.8017 11.25 18.2187 11.25C22.1818 11.25 25.4062 14.4744 25.4062 18.4375C25.4062 22.4006 22.1818 25.625 18.2187 25.625C14.2556 25.625 11.0312 22.4006 11.0312 18.4375C11.0312 17.0205 11.4451 15.6991 12.1559 14.5846L13.9893 16.4178C13.6959 17.0299 13.5312 17.7147 13.5312 18.4375C13.5312 21.0222 15.634 23.125 18.2187 23.125ZM18.315 16.8799C19.1317 16.93 19.7812 17.6085 19.7812 18.4375C19.7812 19.2991 19.0803 20 18.2187 20C17.3896 20 16.7112 19.3505 16.6611 18.5338C16.6931 18.5358 16.725 18.5385 16.7571 18.5385C17.1571 18.5385 17.5568 18.3858 17.862 18.0808C18.1915 17.7513 18.3414 17.3113 18.315 16.8799Z" fill="#1E959B"/>
</svg>
