<svg width="64" height="80" viewBox="0 0 64 80" fill="none" xmlns="http://www.w3.org/2000/svg">
<path d="M58.6562 0H4.90625C2.32156 0 0.21875 2.10281 0.21875 4.6875V75.3125C0.21875 77.8972 2.32156 80 4.90625 80H40.2188C41.0816 80 41.7812 79.3003 41.7812 78.4375C41.7812 77.5747 41.0816 76.875 40.2188 76.875H4.90625C4.04469 76.875 3.34375 76.1741 3.34375 75.3125V4.6875C3.34375 3.82594 4.04469 3.125 4.90625 3.125H58.6562C59.5178 3.125 60.2188 3.82594 60.2188 4.6875V35.8503C60.2188 36.7131 60.9184 37.4128 61.7812 37.4128C62.6441 37.4128 63.3438 36.7131 63.3438 35.8503V4.6875C63.3438 2.10281 61.2409 0 58.6562 0Z" fill="#1E959B"/>
</svg>
