<svg width="101" height="106" viewBox="0 0 101 106" fill="none" xmlns="http://www.w3.org/2000/svg">
<path d="M2.27741 55.2735L18.4033 66.3936V98.3608C18.4033 102.241 21.5489 105.387 25.4291 105.387H74.6095C78.4897 105.387 81.6353 102.241 81.6353 98.3608V66.3936L97.7594 55.2735C99.1861 54.29 100.038 52.6679 100.038 50.9351C100.038 49.2023 99.1861 47.5802 97.7594 46.5967L81.6353 35.4802V7.02577C81.6353 3.14555 78.4897 0 74.6095 0H25.4291C21.5489 0 18.4033 3.14555 18.4033 7.02577V35.4802L2.27741 46.5984C0.851436 47.582 0 49.2037 0 50.936C0 52.6683 0.851436 54.2899 2.27741 55.2735ZM81.6353 39.7448L95.7659 49.4913C96.2409 49.8192 96.5246 50.3596 96.5246 50.9369C96.5246 51.5141 96.2409 52.0545 95.7659 52.3824L81.6353 62.1272V39.7448ZM63.5281 3.51289L61.2746 5.9157C60.6109 6.62352 59.684 7.02531 58.7137 7.02577H41.3249C40.3542 7.02453 39.4271 6.62292 38.7622 5.9157L36.5105 3.51289H63.5281ZM21.9162 37.3227L22.603 36.8484C23.1883 36.4442 23.472 35.7269 23.3215 35.0317C23.1711 34.3365 22.6162 33.8006 21.9162 33.6745V7.02577C21.9162 5.08566 23.489 3.51289 25.4291 3.51289H31.6943L36.1996 8.31852C37.5299 9.73208 39.3838 10.5351 41.3249 10.5387H58.7137C60.655 10.5364 62.5094 9.73312 63.839 8.31852L68.3443 3.51289H74.6095C76.5496 3.51289 78.1224 5.08566 78.1224 7.02577V33.6745C77.4223 33.8006 76.8675 34.3365 76.717 35.0317C76.5666 35.7269 76.8503 36.4442 77.4356 36.8484L78.1224 37.3227V64.5475L51.0152 83.2449C50.415 83.6585 49.6218 83.6585 49.0216 83.2449L21.9162 64.551V37.3227ZM21.9162 68.8174L47.0333 86.136C48.8372 87.37 51.2137 87.37 53.0175 86.136L78.1224 68.8174V89.5786C78.1224 91.5187 76.5496 93.0915 74.6095 93.0915H25.4291C23.489 93.0915 21.9162 91.5187 21.9162 89.5786V68.8174ZM21.9162 95.6278C22.9795 96.26 24.1921 96.5971 25.4291 96.6044H74.6095C75.8465 96.5971 77.0591 96.26 78.1224 95.6278V98.3608C78.1224 100.301 76.5496 101.874 74.6095 101.874H25.4291C23.489 101.874 21.9162 100.301 21.9162 98.3608V95.6278ZM4.27273 49.4913L18.4033 39.7413V62.1289L4.27097 52.3824C3.79589 52.0545 3.51226 51.5141 3.51226 50.9369C3.51226 50.3596 3.79589 49.8192 4.27097 49.4913H4.27273Z" fill="#F8FFFF"/>
<path d="M38.4641 25.5369C38.8193 25.5362 39.166 25.4278 39.4583 25.226L42.8289 22.9005C43.3629 22.5515 43.6657 21.9404 43.6199 21.3042C43.5741 20.6679 43.187 20.1065 42.6086 19.8375C42.0301 19.5686 41.3513 19.6344 40.8353 20.0094L37.4665 22.3332C36.8322 22.7693 36.5558 23.5677 36.7846 24.3027C37.0135 25.0377 37.6943 25.538 38.4641 25.5369Z" fill="#F8FFFF"/>
<path d="M30.724 26.9825L27.3622 29.308C26.5843 29.8656 26.396 30.9433 26.9388 31.7317C27.4816 32.52 28.5555 32.7286 29.354 32.2009L32.7246 29.8753C33.5025 29.3177 33.6908 28.24 33.148 27.4517C32.6052 26.6634 31.5312 26.4547 30.7328 26.9825H30.724Z" fill="#F8FFFF"/>
<path d="M49.571 18.2513L50.0207 17.9421L50.4703 18.2513C51.2681 18.7727 52.3362 18.5627 52.8772 17.7781C53.4183 16.9934 53.2349 15.9205 52.4639 15.3601L51.0166 14.3625C50.4168 13.9496 49.6245 13.9496 49.0248 14.3625L47.5775 15.3601C46.8065 15.9205 46.623 16.9934 47.1641 17.7781C47.7051 18.5627 48.7732 18.7727 49.571 18.2513Z" fill="#F8FFFF"/>
<path d="M60.5828 25.226C61.3812 25.7538 62.4552 25.5451 62.998 24.7568C63.5407 23.9685 63.3525 22.8908 62.5746 22.3332L59.204 20.0094C58.6891 19.606 57.9927 19.5221 57.3967 19.7917C56.8008 20.0614 56.404 20.6398 56.3671 21.2929C56.3301 21.9459 56.6592 22.5654 57.2209 22.9005L60.5828 25.226Z" fill="#F8FFFF"/>
<path d="M70.6939 32.2009C71.2107 32.557 71.8782 32.6104 72.445 32.3409C73.0118 32.0714 73.3917 31.52 73.4418 30.8945C73.4918 30.2689 73.2043 29.6641 72.6875 29.308L69.3169 26.9825C68.5184 26.4547 67.4445 26.6634 66.9017 27.4517C66.3589 28.24 66.5472 29.3177 67.3251 29.8753L70.6939 32.2009Z" fill="#F8FFFF"/>
<path d="M50.0199 61.4755C50.3491 61.4755 50.6717 61.383 50.9508 61.2085L65.0024 52.4263C65.5159 52.1053 65.8279 51.5424 65.8279 50.9368V35.1288C65.8279 34.5232 65.5159 33.9603 65.0024 33.6393L50.9508 24.8571C50.3813 24.5012 49.6586 24.5012 49.089 24.8571L35.0374 33.6393C34.5239 33.9603 34.2119 34.5232 34.2119 35.1288V50.9368C34.2119 51.5424 34.5239 52.1053 35.0374 52.4263L49.089 61.2085C49.3681 61.383 49.6907 61.4755 50.0199 61.4755ZM62.315 49.9637L51.7763 56.5574V44.8859L62.315 38.2992V49.9637ZM50.0199 28.4174L60.757 35.1288L50.0199 41.8402L39.2828 35.1288L50.0199 28.4174ZM48.2635 56.5574L37.7248 49.9708V38.2992L48.2635 44.8859V56.5574Z" fill="#F8FFFF"/>
</svg>
