<svg width="105" height="104" viewBox="0 0 105 104" fill="none" xmlns="http://www.w3.org/2000/svg">
<path d="M33.6365 54.0757C34.4636 54.2243 35.2566 53.6753 35.4058 52.8474L36.1206 48.8871L37.3148 52.9347C37.5455 53.7167 38.2097 54.137 38.9912 54.175C39.679 54.1713 40.4598 53.6009 40.6535 52.9191L41.8061 48.8761L42.568 52.8626C42.7257 53.6887 43.5234 54.2308 44.3496 54.0726C45.1757 53.9149 45.7174 53.117 45.5594 52.291L43.7624 42.8877C43.4163 41.1889 40.8576 41.1046 40.3848 42.7502L38.9602 47.7479L37.4813 42.7352C36.9897 41.042 34.4275 41.2368 34.1015 42.9238L32.4082 52.3064C32.259 53.1343 32.8089 53.9264 33.6365 54.0757Z" fill="#F8FFFF"/>
<path d="M14.8769 54.1753C16.4905 54.1753 18.0376 53.5127 19.0791 52.2705C19.6192 51.6258 19.5345 50.6654 18.8896 50.1252C18.2451 49.5851 17.2846 49.6695 16.7443 50.3145C14.8609 52.3012 11.495 50.3975 11.5823 47.8351C11.548 45.2365 14.5862 43.6216 16.7175 45.1023C17.4152 45.5736 18.3613 45.3898 18.8322 44.6929C19.3028 43.996 19.1197 43.0494 18.4228 42.5785C14.2899 39.7322 8.49312 42.8128 8.53637 47.8351C8.53658 51.331 11.3808 54.1753 14.8769 54.1753Z" fill="#F8FFFF"/>
<path d="M23.3042 54.1753C24.1455 54.1753 24.8272 53.4934 24.8272 52.6523V50.7692L27.3701 53.6585C28.0678 54.2984 28.7842 54.344 29.5195 53.7956C30.1508 53.24 30.2121 52.2775 29.6565 51.6462L27.5199 49.2186C31.6323 47.4386 30.3876 41.5581 25.8676 41.4946H23.3075C22.4652 41.4927 21.7812 42.1752 21.7812 43.0175V52.6523C21.7812 53.4934 22.4631 54.1753 23.3042 54.1753ZM25.8676 44.5403C27.3526 44.6227 27.3516 46.4202 25.8676 46.5025C25.6195 46.5025 25.2355 46.5037 24.8399 46.5055C24.8373 45.8504 24.8357 45.1954 24.8351 44.5403H25.8676Z" fill="#F8FFFF"/>
<path d="M67.3985 40.5117V33.6208C67.3286 31.6042 64.4216 31.6058 64.3525 33.6208V40.5117C64.4224 42.528 67.3294 42.5266 67.3985 40.5117Z" fill="#F8FFFF"/>
<path d="M85.1016 40.5117V33.6208C85.0317 31.6042 82.1247 31.6058 82.0557 33.6208V40.5117C82.1253 42.528 85.0323 42.5266 85.1016 40.5117Z" fill="#F8FFFF"/>
<path d="M78.2421 38.6595V35.4727C78.0484 30.8078 71.4028 30.8112 71.2109 35.4727V38.6595C71.4047 43.3248 78.0502 43.321 78.2421 38.6595ZM75.1962 38.6595C75.18 39.279 74.2729 39.2788 74.2568 38.6595V35.4727C74.2731 34.8531 75.18 34.8537 75.1962 35.4727V38.6595Z" fill="#F8FFFF"/>
<path d="M76.249 28.8068V21.9159C76.1792 19.8993 73.2722 19.9009 73.2031 21.9159V28.8068C73.273 30.8231 76.1798 30.8217 76.249 28.8068Z" fill="#F8FFFF"/>
<path d="M69.3906 23.7677C69.197 19.1026 62.5513 19.106 62.3594 23.7677V26.9545C62.5531 31.6196 69.1987 31.6158 69.3906 26.9545V23.7677ZM66.3446 26.9545C66.3284 27.5739 65.4213 27.5736 65.4053 26.9545V23.7677C65.4215 23.1479 66.3286 23.1486 66.3446 23.7677V26.9545Z" fill="#F8FFFF"/>
<path d="M87.0956 23.7677C86.9021 19.1026 80.2563 19.106 80.0645 23.7677V26.9545C80.2582 31.6196 86.9037 31.6158 87.0956 26.9545V23.7677ZM84.0497 26.9545C84.0335 27.5739 83.1264 27.5736 83.1104 26.9545V23.7677C83.1266 23.1479 84.0337 23.1486 84.0497 23.7677V26.9545Z" fill="#F8FFFF"/>
<path d="M73.2031 45.3258V52.2167C73.273 54.2333 76.18 54.2316 76.249 52.2167V45.3258C76.1792 43.3092 73.2722 43.3108 73.2031 45.3258Z" fill="#F8FFFF"/>
<path d="M62.3594 47.178V50.3648C62.5531 55.0299 69.1987 55.0261 69.3906 50.3648V47.178C69.1968 42.5128 62.5513 42.5163 62.3594 47.178ZM65.4053 47.178C65.4215 46.5582 66.3286 46.5588 66.3446 47.178V50.3648C66.3284 50.9841 65.4213 50.9839 65.4053 50.3648V47.178Z" fill="#F8FFFF"/>
<path d="M80.0645 47.178V50.3648C80.2582 55.0299 86.9037 55.0261 87.0956 50.3648V47.178C86.9021 42.5128 80.2563 42.5163 80.0645 47.178ZM83.1104 47.178C83.1266 46.5582 84.0337 46.5588 84.0497 47.178V50.3648C84.0335 50.9841 83.1264 50.9839 83.1104 50.3648V47.178Z" fill="#F8FFFF"/>
<path d="M102.249 80.5891C102.248 80.5875 102.247 80.586 102.246 80.5844C98.7481 73.4412 89.8861 69.9751 82.4758 72.7373V60.3149H88.9112C92.7397 60.3149 95.8546 57.2002 95.8546 53.3715V41.454C95.8546 39.485 92.8087 39.485 92.8087 41.454V53.3715C92.8087 55.5206 91.0604 57.269 88.9112 57.269H75.8566C75.5291 57.269 75.2101 57.3748 74.9471 57.5703L68.489 62.3776V58.792C68.489 57.9509 67.8073 57.269 66.966 57.269H60.5426C58.3934 57.269 56.6449 55.5206 56.6449 53.3715V34.577C56.6451 34.5664 56.6451 34.5561 56.6449 34.5455V20.1581C56.6449 18.0089 58.3934 16.2605 60.5426 16.2605H88.911C91.0602 16.2605 92.8085 18.0089 92.8085 20.1581V33.3377C92.8085 35.3068 95.8544 35.3068 95.8544 33.3377V20.1581C95.8544 16.3293 92.7395 13.2146 88.911 13.2146H60.5428C56.7141 13.2146 53.5992 16.3293 53.5992 20.1581V33.0382H8.83222C3.98029 33.0382 0.0332031 36.9853 0.0332031 41.8372V81.5108C0.0332031 85.7097 3.44909 89.1256 7.64797 89.1256H11.2015C13.1706 89.1256 13.1706 86.0797 11.2015 86.0797H7.64797C5.12881 86.0797 3.07911 84.0302 3.07911 81.5108V76.3262H76.7158C74.0961 78.8588 72.3311 82.27 71.901 86.0797H19.779C17.8099 86.0797 17.8099 89.1256 19.779 89.1256H32.381L29.5832 100.953H24.1974C23.3561 100.953 22.6745 101.635 22.6745 102.476C22.6745 103.317 23.3561 103.999 24.1974 103.999H58.3116C59.1529 103.999 59.8345 103.317 59.8345 102.476C59.8345 101.635 59.1529 100.953 58.3116 100.953H52.9258L50.128 89.1256H71.8442C72.0023 91.2538 72.5744 93.2946 73.5501 95.2072C76.3174 100.63 81.8157 103.999 87.8993 103.999C99.7441 104.146 107.758 91.0595 102.249 80.5891ZM82.2049 90.7969C82.2043 90.7957 82.2035 90.7943 82.2029 90.7931C80.0182 86.6364 83.2021 81.4495 87.8995 81.5075C90.3129 81.5075 92.495 82.8455 93.5944 84.9996C95.7832 89.1568 92.599 94.3471 87.8995 94.289C85.4862 94.289 83.3041 92.9508 82.2049 90.7969ZM98.7649 80.6557L95.5078 82.3145C94.0452 80.3143 91.8659 78.9784 89.4225 78.5833V74.9308C93.2358 75.3723 96.6376 77.4569 98.7649 80.6557ZM3.07911 41.8372C3.07911 38.6648 5.66001 36.0841 8.83222 36.0841H53.5992V53.3715C53.5992 57.2002 56.7141 60.3149 60.5428 60.3149H65.4433V65.4097C65.4433 66.6358 66.8805 67.3721 67.8757 66.6313L76.3614 60.3149H79.4299V73.2803H3.07911V41.8372ZM86.3766 74.9318V78.5845C80.8692 79.3699 77.0894 85.3917 78.908 90.7683L75.6639 92.4204L75.6503 92.4273C72.6397 84.6554 78.2034 75.7473 86.3766 74.9318ZM49.7956 100.953H32.7132L35.5107 89.1256H46.9979L49.7956 100.953ZM87.8995 100.953C83.4797 100.953 79.4411 98.76 77.0342 95.1406L80.2915 93.4818C86.7464 101.958 99.9339 95.2671 96.8913 85.0282L99.4598 83.7201L100.149 83.3692C103.358 91.6963 96.8403 101.079 87.8995 100.953Z" fill="#F8FFFF"/>
<path d="M8.4292 28.3444C9.27048 28.3444 9.95216 27.6625 9.95216 26.8215V18.9238H15.9217V26.8215C15.9217 28.7905 18.9676 28.7905 18.9676 26.8215V17.4009C18.9676 16.5598 18.286 15.8779 17.4447 15.8779H8.4292C7.58792 15.8779 6.90625 16.5598 6.90625 17.4009V26.8215C6.90625 27.6625 7.58792 28.3444 8.4292 28.3444Z" fill="#F8FFFF"/>
<path d="M35.9956 28.3445C36.8369 28.3445 37.5186 27.6626 37.5186 26.8215V13.1612H43.4881V26.8213C43.4881 28.7904 46.534 28.7904 46.534 26.8213V11.6382C46.534 10.7972 45.8524 10.1153 45.0111 10.1153H35.9956C35.1543 10.1153 34.4727 10.7972 34.4727 11.6382V26.8213C34.4727 27.6626 35.1543 28.3445 35.9956 28.3445Z" fill="#F8FFFF"/>
<path d="M22.2124 28.3445C23.0537 28.3445 23.7354 27.6626 23.7354 26.8215V3.07765H29.7049V26.8213C29.7049 28.7904 32.7508 28.7904 32.7508 26.8213V1.55469C32.7508 0.713616 32.0692 0.0317383 31.2279 0.0317383H22.2124C21.3711 0.0317383 20.6895 0.713616 20.6895 1.55469V26.8213C20.6895 27.6626 21.3711 28.3445 22.2124 28.3445Z" fill="#F8FFFF"/>
<path d="M45.7465 57.9343H10.1075C8.09095 58.0042 8.09257 60.9112 10.1075 60.9802H45.7465C47.7631 60.9104 47.7615 58.0036 45.7465 57.9343Z" fill="#F8FFFF"/>
<path d="M29.4495 64.5358H10.1075C8.09095 64.6056 8.09257 67.5126 10.1075 67.5817H29.4495C31.4661 67.5118 31.4646 64.6048 29.4495 64.5358Z" fill="#F8FFFF"/>
</svg>
