<svg width="105" height="105" viewBox="0 0 105 105" fill="none" xmlns="http://www.w3.org/2000/svg">
<path d="M48.9139 97.828H55.9016C56.8664 97.828 57.6485 97.0458 57.6485 96.081C57.6485 95.1163 56.8664 94.3341 55.9016 94.3341H48.9139C47.9492 94.3341 47.167 95.1163 47.167 96.081C47.167 97.0458 47.9492 97.828 48.9139 97.828Z" fill="#F8FFFF"/>
<path d="M22.7098 26.2039C23.6746 26.2039 24.4567 25.4217 24.4567 24.457V13.9754H80.3584V27.9508C80.3584 28.9156 81.1406 29.6978 82.1054 29.6978C83.0701 29.6978 83.8523 28.9156 83.8523 27.9508V6.98771C83.8523 3.84324 79.8204 0 75.1176 0H29.6975C24.876 0.00567751 20.9686 3.91312 20.9629 8.73464V24.457C20.9629 25.4217 21.7451 26.2039 22.7098 26.2039ZM24.4567 8.73464C24.4567 5.8402 26.8031 3.49385 29.6975 3.49385H75.1176C78.1451 3.49385 80.3584 5.93955 80.3584 6.98771V10.4816H24.4567V8.73464Z" fill="#F8FFFF"/>
<path d="M82.1054 76.8648C81.1406 76.8648 80.3584 77.647 80.3584 78.6117V87.3464H24.4567V80.3587C24.4567 79.3939 23.6746 78.6117 22.7098 78.6117C21.7451 78.6117 20.9629 79.3939 20.9629 80.3587V96.081C20.9686 100.903 24.876 104.81 29.6975 104.816H75.1176C79.9392 104.81 83.8466 100.903 83.8523 96.081V78.6117C83.8523 77.647 83.0701 76.8648 82.1054 76.8648ZM80.3584 96.081C80.3584 98.9754 78.0121 101.322 75.1176 101.322H29.6975C26.8031 101.322 24.4567 98.9754 24.4567 96.081V90.8402H80.3584V96.081Z" fill="#F8FFFF"/>
<path d="M48.9136 5.24078H45.4198C44.455 5.24078 43.6729 6.02297 43.6729 6.98771C43.6729 7.95245 44.455 8.73464 45.4198 8.73464H48.9136C49.8784 8.73464 50.6606 7.95245 50.6606 6.98771C50.6606 6.02297 49.8784 5.24078 48.9136 5.24078Z" fill="#F8FFFF"/>
<path d="M59.3951 5.24078H55.9012C54.9365 5.24078 54.1543 6.02297 54.1543 6.98771C54.1543 7.95245 54.9365 8.73464 55.9012 8.73464H59.3951C60.3598 8.73464 61.142 7.95245 61.142 6.98771C61.142 6.02297 60.3598 5.24078 59.3951 5.24078Z" fill="#F8FFFF"/>
<path d="M104.414 33.8223C104.081 33.4225 103.588 33.1912 103.068 33.1916H57.215L56.3241 27.184C55.9308 24.6208 53.7323 22.7238 51.1392 22.7101H43.6729V26.2039H51.1392C52.0059 26.2033 52.742 26.8383 52.8687 27.6958L58.9724 68.8971C59.3657 71.4603 61.5642 73.3572 64.1573 73.371H68.4513C69.3979 76.0879 72.3677 77.523 75.0844 76.5766C76.5861 76.0534 77.7668 74.8729 78.29 73.371H85.9205C86.8853 76.0999 89.8797 77.53 92.6084 76.565C95.3371 75.6001 96.7674 72.6058 95.8025 69.8771C94.8377 67.1482 91.8433 65.7181 89.1146 66.6831C87.6221 67.2107 86.4481 68.3848 85.9205 69.8771H78.29C77.3433 67.1602 74.3736 65.7251 71.6569 66.6715C70.1552 67.1947 68.9745 68.3752 68.4513 69.8771H64.1573C63.2926 69.8725 62.5593 69.2402 62.4279 68.3853L61.8723 64.6363H97.8276C98.6672 64.6357 99.3878 64.0378 99.5431 63.2126L104.784 35.2618C104.881 34.7508 104.745 34.223 104.414 33.8223ZM90.8399 69.8771C91.8046 69.8771 92.5868 70.6593 92.5868 71.6241C92.5868 72.5888 91.8046 73.371 90.8399 73.371C89.8752 73.371 89.093 72.5888 89.093 71.6241C89.093 70.6593 89.8752 69.8771 90.8399 69.8771ZM73.3706 69.8771C74.3354 69.8771 75.1175 70.6593 75.1175 71.6241C75.1175 72.5888 74.3354 73.371 73.3706 73.371C72.4059 73.371 71.6237 72.5888 71.6237 71.6241C71.6237 70.6593 72.4059 69.8771 73.3706 69.8771ZM96.3777 61.1425H61.3552L57.7339 36.6855H100.972L96.3777 61.1425Z" fill="#F8FFFF"/>
<path d="M45.4201 52.4078C45.4201 39.8653 35.2526 29.6978 22.7101 29.6978C10.1676 29.6978 0 39.8653 0 52.4078C0 64.9503 10.1676 75.1179 22.7101 75.1179C35.2464 75.1034 45.4057 64.9442 45.4201 52.4078ZM3.49385 52.4078C3.49385 41.795 12.0973 33.1916 22.7101 33.1916C33.3229 33.1916 41.9263 41.795 41.9263 52.4078C41.9263 63.0206 33.3229 71.624 22.7101 71.624C12.1025 71.6115 3.5063 63.0154 3.49385 52.4078Z" fill="#F8FFFF"/>
<path d="M24.4573 66.3833V64.3883C28.1872 63.4283 30.4327 59.6264 29.4727 55.8965C28.6787 52.8118 25.8957 50.657 22.7104 50.6609C20.7807 50.6609 19.2165 49.0968 19.2165 47.1671C19.2165 45.2374 20.7807 43.6732 22.7104 43.6732C24.6401 43.6732 26.2042 45.2374 26.2042 47.1671C26.2042 48.1318 26.9864 48.914 27.9511 48.914C28.9159 48.914 29.6981 48.1318 29.6981 47.1671C29.6861 43.9905 27.5332 41.2216 24.4573 40.4274V38.4324C24.4573 37.4677 23.6751 36.6855 22.7104 36.6855C21.7456 36.6855 20.9634 37.4677 20.9634 38.4324V40.4274C17.2335 41.3873 14.9881 45.1893 15.948 48.9192C16.742 52.0039 19.5251 54.1587 22.7104 54.1548C24.6401 54.1548 26.2042 55.7189 26.2042 57.6486C26.2042 59.5783 24.6401 61.1425 22.7104 61.1425C20.7807 61.1425 19.2165 59.5783 19.2165 57.6486C19.2165 56.6839 18.4343 55.9017 17.4696 55.9017C16.5048 55.9017 15.7227 56.6839 15.7227 57.6486C15.7347 60.8252 17.8875 63.5941 20.9634 64.3883V66.3833C20.9634 67.348 21.7456 68.1302 22.7104 68.1302C23.6751 68.1302 24.4573 67.348 24.4573 66.3833Z" fill="#F8FFFF"/>
<path d="M62.8895 41.9263H87.3465C88.3112 41.9263 89.0934 41.1441 89.0934 40.1794C89.0934 39.2146 88.3112 38.4324 87.3465 38.4324H62.8895C61.9248 38.4324 61.1426 39.2146 61.1426 40.1794C61.1426 41.1441 61.9248 41.9263 62.8895 41.9263Z" fill="#F8FFFF"/>
<path d="M92.5868 41.9263H96.0806C97.0454 41.9263 97.8276 41.1441 97.8276 40.1794C97.8276 39.2146 97.0454 38.4324 96.0806 38.4324H92.5868C91.622 38.4324 90.8398 39.2146 90.8398 40.1794C90.8398 41.1441 91.622 41.9263 92.5868 41.9263Z" fill="#F8FFFF"/>
</svg>
