<svg width="109" height="102" viewBox="0 0 109 102" fill="none" xmlns="http://www.w3.org/2000/svg">
<path d="M102.985 101.241H92.512C91.1236 101.239 89.7926 100.687 88.8109 99.7051C87.8292 98.7234 87.277 97.3923 87.2754 96.004V73.3121C87.277 71.9238 87.8292 70.5928 88.8109 69.6111C89.7926 68.6293 91.1236 68.0771 92.512 68.0756H102.985C104.373 68.0771 105.705 68.6293 106.686 69.6111C107.668 70.5928 108.22 71.9238 108.222 73.3121V96.004C108.22 97.3923 107.668 98.7234 106.686 99.7051C105.705 100.687 104.373 101.239 102.985 101.241ZM92.512 71.5666C92.0492 71.5671 91.6055 71.7512 91.2783 72.0785C90.951 72.4057 90.767 72.8494 90.7664 73.3121V96.004C90.767 96.4668 90.951 96.9104 91.2783 97.2377C91.6055 97.5649 92.0492 97.749 92.512 97.7495H102.985C103.448 97.749 103.892 97.5649 104.219 97.2377C104.546 96.9104 104.73 96.4668 104.731 96.004V73.3121C104.73 72.8494 104.546 72.4057 104.219 72.0785C103.892 71.7512 103.448 71.5671 102.985 71.5666H92.512Z" fill="#F8FFFF"/>
<path d="M97.7485 96.004C98.7125 96.004 99.494 95.2225 99.494 94.2585C99.494 93.2944 98.7125 92.5129 97.7485 92.5129C96.7844 92.5129 96.0029 93.2944 96.0029 94.2585C96.0029 95.2225 96.7844 96.004 97.7485 96.004Z" fill="#F8FFFF"/>
<path d="M96.0029 75.0577C96.0029 76.0217 96.7844 76.8032 97.7485 76.8032C98.7125 76.8032 99.494 76.0217 99.494 75.0577C99.494 74.0936 98.7125 73.3121 97.7485 73.3121C96.7844 73.3121 96.0029 74.0936 96.0029 75.0577Z" fill="#F8FFFF"/>
<path d="M3.48972 69.8211H3.48535L7.97792 90.7674L3.48972 69.8211ZM7.97792 90.7674V90.7936C8.15464 90.7762 8.33355 90.7674 8.51465 90.7674H7.97792ZM3.48972 69.8211H3.48535L7.97792 90.7674L3.48972 69.8211ZM7.97792 90.7674V90.7936C8.15464 90.7762 8.33355 90.7674 8.51465 90.7674H7.97792Z" fill="#F8FFFF"/>
<path d="M61.5398 90.7674H40.1811C40.1809 90.5217 40.1546 90.2766 40.1026 90.0364L35.6122 69.0901C35.4419 68.3106 35.0111 67.6124 34.3908 67.1107C33.7704 66.6089 32.9976 66.3335 32.1997 66.33H3.49013C2.96967 66.33 2.45579 66.4464 1.98613 66.6707C1.51647 66.8949 1.10292 67.2214 0.775749 67.6262C0.448583 68.031 0.216091 68.5038 0.0952972 69.01C-0.0254968 69.5163 -0.0315339 70.0431 0.0776276 70.552L4.5658 91.4984C4.62367 91.7688 4.71453 92.0312 4.83636 92.2795C4.09721 93.0089 3.59171 93.9417 3.38414 94.9592C3.17657 95.9767 3.27632 97.033 3.67069 97.9937C4.06507 98.9543 4.73625 99.776 5.59888 100.354C6.46151 100.932 7.4766 101.241 8.51507 101.241H61.5398C62.9287 101.241 64.2606 100.689 65.2427 99.7068C66.2247 98.7248 66.7764 97.3928 66.7764 96.004C66.7764 94.6152 66.2247 93.2832 65.2427 92.3012C64.2606 91.3191 62.9287 90.7674 61.5398 90.7674H61.5398ZM32.1997 69.8211L36.6879 90.7674H14.4106L9.91804 69.8211H32.1997H32.1997ZM3.48577 69.8211H6.42916C6.42928 70.0668 6.45562 70.3119 6.50774 70.552L10.8388 90.7674H8.51507C8.33395 90.7674 8.15504 90.7761 7.97832 90.7936V90.7674L3.48577 69.8211ZM35.3569 97.7495H8.51507C8.05213 97.7495 7.60815 97.5656 7.2808 97.2383C6.95345 96.9109 6.76954 96.4669 6.76954 96.004C6.76954 95.541 6.95345 95.0971 7.2808 94.7697C7.60815 94.4424 8.05213 94.2585 8.51507 94.2585H35.3569C35.8199 94.2585 36.2638 94.4424 36.5912 94.7697C36.9185 95.0971 37.1024 95.541 37.1024 96.004C37.1024 96.4669 36.9185 96.9109 36.5912 97.2383C36.2638 97.5656 35.8199 97.7495 35.3569 97.7495H35.3569ZM61.5398 97.7495H40.2924C40.6939 96.6205 40.6939 95.3875 40.2924 94.2585H61.5398C62.0028 94.2585 62.4468 94.4424 62.7741 94.7697C63.1015 95.0971 63.2854 95.541 63.2854 96.004C63.2854 96.4669 63.1015 96.9109 62.7741 97.2383C62.4468 97.5656 62.0028 97.7495 61.5398 97.7495Z" fill="#F8FFFF"/>
<path d="M79.421 89.0219C77.0109 89.0219 75.0572 90.9756 75.0572 93.3857V93.846C75.0543 94.6953 75.2895 95.5284 75.7361 96.2507C76.1827 96.9731 76.8228 97.5558 77.5839 97.9328C77.9358 98.1086 78.218 98.3982 78.3847 98.7545C78.5515 99.1108 78.593 99.513 78.5026 99.8959C78.4122 100.279 78.1951 100.62 77.8866 100.864C77.578 101.108 77.1961 101.241 76.8027 101.241H71.5661C70.6021 101.241 69.8206 100.459 69.8206 99.495V98.769C69.8206 98.206 70.2771 97.7495 70.8401 97.7495C71.6158 97.7495 72.122 96.9044 71.9007 96.1609C71.6781 95.4126 71.5645 94.6329 71.5661 93.846C71.5661 91.1817 69.4063 89.0219 66.742 89.0219H45.3832C44.4192 89.0219 43.6377 88.2404 43.6377 87.2764C43.6377 86.3123 44.4192 85.5308 45.3832 85.5308H82.0393C83.0033 85.5308 83.7848 86.3123 83.7848 87.2764C83.7848 88.2404 83.0033 89.0219 82.0393 89.0219H79.421Z" fill="#F8FFFF"/>
<path d="M99.4941 62.839C99.4941 63.803 98.7126 64.5845 97.7486 64.5845C96.7845 64.5845 96.003 63.803 96.003 62.839V47.5656C96.0024 46.9871 95.7723 46.4325 95.3633 46.0235C94.9542 45.6144 94.3996 45.3844 93.8211 45.3837H41.8917C40.5034 45.3853 39.1723 45.9375 38.1906 46.9192C37.2089 47.9009 36.6567 49.2319 36.6551 50.6203V61.0934C36.6551 62.0575 35.8736 62.839 34.9096 62.839C33.9456 62.839 33.1641 62.0575 33.1641 61.0934V50.6203C33.1667 48.3064 34.0871 46.088 35.7232 44.4518C37.3594 42.8156 39.5778 41.8953 41.8917 41.8926H93.8211C95.3252 41.8943 96.7671 42.4925 97.8307 43.5561C98.8942 44.6196 99.4924 46.0616 99.4941 47.5656V62.839Z" fill="#F8FFFF"/>
<path d="M82.0387 78.5487H43.6371C42.6731 78.5487 41.8916 79.3302 41.8916 80.2942C41.8916 81.2583 42.6731 82.0398 43.6371 82.0398H82.0387C83.0028 82.0398 83.7843 81.2583 83.7843 80.2942C83.7843 79.3302 83.0028 78.5487 82.0387 78.5487Z" fill="#F8FFFF"/>
<path d="M19.1996 27.9284C19.1993 28.6852 19.234 29.4415 19.3035 30.1947C19.3543 30.7446 18.972 31.2475 18.4246 31.3207L16.9456 31.5184C16.3985 31.5915 15.8937 31.2076 15.8403 30.6581C15.8383 30.637 15.8363 30.6159 15.8343 30.5947C15.7667 29.8819 15.0159 29.4328 14.4109 29.8158C12.5083 31.0204 10.9665 32.7334 9.96873 34.774C8.74899 37.2686 8.41504 40.1042 9.02186 42.814C9.62868 45.5237 11.1401 47.9461 13.3073 49.6822C15.4745 51.4184 18.1683 52.3649 20.9451 52.3658H27.9272C28.8913 52.3658 29.6728 53.1473 29.6728 54.1113C29.6728 55.0754 28.8913 55.8569 27.9272 55.8569H20.9451C17.2277 55.8563 13.6309 54.5377 10.794 52.1354C7.95707 49.7332 6.06377 46.4029 5.4506 42.7364C4.83743 39.0699 5.54411 35.3048 7.44503 32.1101C9.2361 29.1002 11.978 26.7804 15.229 25.5101C15.594 25.3675 15.8554 25.0377 15.9019 24.6487C16.6986 17.9773 19.8724 11.8073 24.8535 7.27702C29.7459 2.8272 36.0484 0.262621 42.6359 0.0190834C43.1882 -0.00133745 43.637 0.44843 43.637 1.00117V2.49215C43.637 3.04401 43.1896 3.48941 42.6382 3.51253C36.5224 3.76892 30.7104 6.31105 26.365 10.6564C21.7836 15.2378 19.2067 21.4494 19.1996 27.9284Z" fill="#F8FFFF"/>
<path d="M99.0569 36.4669C99.2836 37.4049 98.5952 38.2826 97.6376 38.402C96.6827 38.5212 95.8238 37.8393 95.5684 36.9115C94.9402 34.6296 93.6591 32.5658 91.8651 30.9842C89.6331 29.0165 86.7603 27.9301 83.7848 27.9284C83.2726 27.9294 82.761 27.9629 82.2531 28.0288C82.0055 28.0598 81.7541 28.0372 81.516 27.9628C81.2778 27.8883 81.0583 27.7637 80.8724 27.5972C80.6865 27.4307 80.5385 27.2263 80.4383 26.9978C80.3381 26.7693 80.2881 26.5219 80.2916 26.2724L80.2938 26.1851C80.2948 24.9052 79.9439 23.6497 79.2794 22.5558C78.6148 21.462 77.6622 20.572 76.5258 19.9831C75.3894 19.3943 74.1129 19.1294 72.836 19.2173C71.5591 19.3052 70.331 19.7426 69.286 20.4816C69.0664 20.6369 68.8139 20.7393 68.5481 20.7809C68.2824 20.8225 68.0107 20.8022 67.7541 20.7215C67.4975 20.6408 67.263 20.502 67.0689 20.3158C66.8748 20.1296 66.7263 19.9011 66.635 19.6481C64.9223 14.921 61.797 10.8351 57.683 7.9448C53.569 5.05446 48.6655 3.49957 43.6377 3.49105V0C49.0353 0.00980503 54.3151 1.57856 58.8424 4.51762C63.3696 7.45668 66.9515 11.6409 69.1573 16.5672C70.6148 15.9382 72.1962 15.6487 73.7821 15.7205C75.3679 15.7922 76.9167 16.2234 78.3115 16.9814C79.7063 17.7394 80.9106 18.8045 81.8334 20.0961C82.7563 21.3878 83.3736 22.8722 83.6387 24.4374H83.7848C87.6109 24.4403 91.3046 25.838 94.174 28.3688C96.6043 30.5124 98.3021 33.3442 99.0569 36.4669Z" fill="#F8FFFF"/>
</svg>
