<svg width="1167" height="55" viewBox="0 0 1167 55" fill="none" xmlns="http://www.w3.org/2000/svg">
<path fill-rule="evenodd" clip-rule="evenodd" d="M976.828 33.3429C973.388 33.3429 968.842 32.4272 970.099 28.4774L972.573 20.687H976.702L974.4 27.9074C973.904 29.475 974.988 30.471 977.739 30.471C980.513 30.471 982.216 29.4605 982.714 27.9074L985.01 20.687H989.111L986.634 28.4774C985.401 32.3713 980.351 33.3429 976.828 33.3429ZM1001.93 24.6255C1001.65 25.5083 1000.92 25.8233 1000.32 25.8233H993.771L994.485 23.5643H1000.95C1001.74 23.5643 1002.15 23.936 1001.93 24.6255ZM1002.72 20.687H991.277L987.319 33.1291H991.446L992.852 28.6976H995.961L998.229 33.1291H1003.63L1000.73 28.2684L1001.48 28.2687C1003.36 28.2687 1005.27 26.6718 1005.98 24.4313C1006.81 21.8523 1005.12 20.687 1002.72 20.687ZM1012.98 28.2445L1016.75 23.9909L1017.8 28.2445H1012.98ZM1019.96 20.5941H1015.79L1003.66 33.1291H1008.73L1010.7 30.8821H1018.41L1018.95 33.1291H1024.09L1019.96 20.5941ZM1024.95 33.1293L1028.91 20.687H1033.02L1030.03 30.1043H1041.08L1039.1 33.1293H1024.95ZM1047.72 29.4733H1056.83L1054.85 21.4225L1047.72 29.4733ZM1155.25 33.1184C1152.71 33.1184 1150.53 32.8786 1148.73 32.4034L1149.53 31.2027C1150.85 31.6349 1152.93 32.2468 1156.22 32.2468C1158.79 32.2468 1162.71 31.5155 1163.4 29.5173C1163.97 27.8505 1160.26 27.7183 1157.3 27.4897C1154.68 27.2763 1151.74 27.2092 1150.92 25.8285C1150.85 25.7094 1150.62 25.3582 1150.94 24.3374C1151.63 22.1474 1155.71 20.618 1160.87 20.618C1163.24 20.618 1165.49 20.8553 1167 21.2531L1166.24 22.452C1164.7 21.8589 1162.37 21.5089 1159.91 21.5089C1157.06 21.5089 1152.92 22.18 1152.37 23.9123C1152.22 24.3776 1152.2 24.7244 1152.44 25.1134C1153.02 26.0544 1155.78 25.8797 1158.58 25.9354C1161.53 25.9945 1164.84 26.1281 1165.36 27.5158C1165.4 27.6394 1165.67 28.136 1165.36 29.1333C1164.39 32.205 1159.29 33.1184 1155.25 33.1184ZM1131.22 32.9099L1135.12 20.7211H1148.71L1148.42 21.6285H1136.18L1134.83 25.8797H1147.08L1146.8 26.7916H1134.54L1132.89 32.0037H1145.13L1144.84 32.9099H1131.22ZM1109.27 32.9099L1113.17 20.5941L1125.66 30.8711L1128.92 20.7207H1130.36L1126.43 33.0449L1113.82 22.5505L1110.71 32.8883L1109.27 32.9099ZM1087.43 32.9099L1091.31 20.7207H1092.74L1089.28 31.5875H1100.68L1100.26 32.9099H1087.43ZM1072.27 26.6423H1081.13C1082.43 26.6423 1084.03 25.8111 1084.43 24.5248C1084.71 23.6288 1085.43 21.9005 1081.85 21.9005H1073.76L1072.27 26.6423ZM1079.37 32.9091L1076.79 27.8088H1071.91L1070.3 32.9091H1068.84L1072.67 20.7305H1083.14C1084.44 20.7305 1085.36 20.9911 1085.77 21.5825C1086.08 22.0317 1086.54 22.9396 1086.27 23.7998C1085.62 25.8995 1083.96 27.5925 1082.25 27.5925H1078.17L1081.41 32.9023L1079.37 32.9091ZM1102.97 32.9099L1106.82 20.7207H1108.36L1104.49 32.9099H1102.97ZM1062.07 32.9099L1065.94 20.7207H1067.48L1063.6 32.9099H1062.07ZM1057.63 32.9099L1057.01 30.3567H1047L1044.75 32.9099H1042.87L1053.68 20.7369L1056.17 20.7211L1059.31 32.8812L1057.63 32.9099Z" fill="white"/>
<path d="M844.765 16.3635C841.714 13.9159 837.648 12.3798 832.498 12.3798C821.619 12.3798 812.795 21.7937 812.795 33.4027C812.795 45.0117 821.619 54.4371 832.498 54.4371C837.657 54.4371 841.714 52.9033 844.765 50.4534V53.668H855.344V13.1237H844.765V16.3635ZM834.091 44.6972C828.169 44.6972 823.375 39.6458 823.375 33.4051C823.375 27.1643 828.169 22.122 834.091 22.122C837.085 22.122 839.956 23.3113 842.072 25.4281C844.189 27.5449 845.379 30.4159 845.379 33.4096C845.379 36.4033 844.189 39.2742 842.072 41.3911C839.956 43.5079 837.085 44.6972 834.091 44.6972ZM897.592 53.6772H908.169V21.1439H897.592V53.6772ZM895.525 10.6692C895.525 12.6197 896.3 14.4904 897.679 15.8695C899.058 17.2487 900.929 18.0236 902.879 18.0236C904.83 18.0236 906.7 17.2487 908.08 15.8695C909.459 14.4904 910.234 12.6197 910.234 10.6692C910.234 5.0415 905.66 1.1175 899.04 0.984324C891.349 0.839672 881.645 5.01624 877.301 17.8605V13.1237H866.73V53.6772H877.303V30.1032C877.303 14.9192 885.966 2.59158 898.976 2.72246C900.183 2.74251 901.38 2.94137 902.528 3.31256C900.64 3.40514 898.859 4.22075 897.556 5.59037C896.253 6.95997 895.526 8.77855 895.527 10.6692H895.525ZM813.869 13.1237H798.929L782.367 28.8335V1.43895H771.789V53.6772H782.367V38.9087L798.929 53.6772H813.787L792.024 33.4441L813.869 13.1237Z" fill="white"/>
<path d="M793.303 5.53296H795.858V4.36884H793.303V2.60316H796.156V1.43905H792.056V8.53393H796.264V7.36982H793.303V5.53296ZM801.293 7.48004C799.844 7.48004 798.841 6.46747 798.841 4.98648C798.841 3.44582 799.833 2.49294 801.151 2.49294C801.723 2.47656 802.286 2.64303 802.758 2.96824L803.316 2.0498C802.706 1.55615 801.939 1.30074 801.155 1.33113C798.813 1.33113 797.525 2.95217 797.525 4.99108C797.525 7.20221 799.017 8.65104 801.185 8.65104C802.103 8.65104 803.022 8.32728 803.458 7.8497L802.98 6.91749C802.496 7.28644 801.902 7.48426 801.293 7.48004ZM806.115 2.85802C805.8 7.13562 805.079 7.36982 804.533 7.29864L804.503 8.53393C805.901 8.73829 806.824 8.07472 807.24 3.94178L807.382 2.60316H809.449V8.53393H810.686V1.43905H806.211L806.115 2.85802ZM814.066 6.49042V1.43905H812.817V8.53393H813.912L817.627 3.50551V8.53393H818.874V1.43905H817.779L814.066 6.49042ZM827.792 1.33113C825.613 1.33113 824.102 2.93839 824.102 4.99108C824.102 7.20221 825.684 8.65104 827.792 8.65104C829.9 8.65104 831.493 7.11955 831.493 4.99108C831.486 2.77537 829.895 1.32654 827.785 1.32654L827.792 1.33113ZM827.792 7.48463C826.465 7.48463 825.42 6.41006 825.42 4.99108C825.42 3.52159 826.435 2.49754 827.792 2.49754C829.149 2.49754 830.175 3.52159 830.175 4.99108C830.168 6.3848 829.275 7.48004 827.785 7.48004L827.792 7.48463ZM835.289 4.12546C834.97 4.12654 834.652 4.14647 834.336 4.18515V2.60316H837.236V1.43905H833.089V8.53393C833.505 8.53393 834.113 8.57526 834.926 8.57526C836.669 8.57526 837.663 7.73489 837.663 6.26311C837.672 4.95664 836.77 4.12546 835.289 4.12546ZM835.126 7.40885C834.864 7.40885 834.621 7.39048 834.336 7.36982V5.34238C834.618 5.30465 834.903 5.2847 835.188 5.28268C836.06 5.28268 836.434 5.7419 836.434 6.34576C836.434 6.94964 836.049 7.40885 835.126 7.40885ZM842.294 5.57199L839.901 1.43905H838.404L841.63 6.82106L840.765 8.55689H842.092L845.642 1.43905H844.312L842.294 5.57199ZM850.071 4.79132V4.77066C850.384 4.63835 850.649 4.41344 850.83 4.12613C851.012 3.83881 851.101 3.50286 851.086 3.1634C851.086 2.18067 850.447 1.4092 848.753 1.4092C848.043 1.4092 847.102 1.44134 846.705 1.45971V8.52474C847.12 8.55459 848.034 8.57526 848.682 8.57526C850.183 8.57526 851.32 7.9071 851.32 6.44679C851.345 6.06718 851.232 5.69125 851.003 5.38771C850.774 5.08418 850.443 4.8733 850.071 4.79361V4.79132ZM847.952 2.60087C848.181 2.58019 848.45 2.57101 848.735 2.57101C849.403 2.57101 849.848 2.87639 849.848 3.4527C849.848 4.1025 849.373 4.3964 848.794 4.3964H847.952V2.60087ZM848.773 7.40885C848.499 7.40823 848.224 7.39137 847.952 7.35834V5.48244H848.836C849.616 5.48244 850.071 5.78783 850.071 6.3848C850.071 7.05526 849.616 7.40885 848.773 7.40885ZM855.182 3.82009C854.911 3.82104 854.64 3.8379 854.371 3.87059V1.43905H853.122V8.53393C853.54 8.53393 854.238 8.55459 854.918 8.55459C856.805 8.55459 857.859 7.6132 857.859 6.11157C857.859 4.72244 857.016 3.82009 855.182 3.82009ZM855.06 7.39048C854.817 7.39048 854.601 7.36982 854.371 7.35834V5.037C854.654 5.00716 854.897 4.98648 855.081 4.98648C855.953 4.98648 856.541 5.34238 856.541 6.13452C856.544 7.01393 855.972 7.39048 855.06 7.39048ZM859.528 7.14711C859.427 7.13675 859.324 7.14842 859.228 7.18133C859.131 7.21425 859.043 7.26761 858.969 7.33779C858.895 7.40797 858.836 7.49332 858.798 7.58801C858.76 7.68269 858.743 7.78448 858.748 7.88644C858.734 8.04011 858.78 8.1932 858.876 8.31381C858.972 8.43442 859.111 8.51327 859.264 8.53393C859.347 8.53393 859.469 8.53393 859.528 8.45358C859.554 8.61242 859.522 8.77528 859.439 8.91279C859.381 9.04223 859.296 9.15744 859.189 9.25028C859.081 9.34311 858.955 9.4113 858.819 9.45007L859.133 9.99883C859.513 9.90276 859.849 9.67897 860.083 9.36502C860.318 9.05107 860.437 8.66604 860.422 8.27447C860.424 7.62239 860.079 7.14711 859.528 7.14711ZM863.482 2.60316H865.778V8.53393H867.025V2.60316H869.321V1.43905H863.485L863.482 2.60316ZM873.42 1.32654C871.241 1.32654 869.73 2.9338 869.73 4.98648C869.73 7.19761 871.312 8.64643 873.42 8.64643C875.528 8.64643 877.121 7.11496 877.121 4.98648C877.123 2.77537 875.53 1.32654 873.422 1.32654H873.42ZM873.42 7.48004C872.09 7.48004 871.048 6.40547 871.048 4.98648C871.048 3.517 872.06 2.49294 873.42 2.49294C874.779 2.49294 875.803 3.517 875.803 4.98648C875.805 6.3848 874.912 7.48004 873.422 7.48004H873.42Z" fill="white"/>
<g clip-path="url(#clip0_120_1492)">
<path d="M671.217 32.9003H675.393V11.7032L671.217 12.0756V32.9003ZM673.292 3.08545C672.914 3.08518 672.539 3.16037 672.19 3.30663C671.841 3.45289 671.525 3.66727 671.26 3.93722C670.995 4.20718 670.787 4.52729 670.647 4.87881C670.507 5.23033 670.439 5.6062 670.446 5.98443C670.446 6.73919 670.746 7.46304 671.28 7.99675C671.813 8.53045 672.537 8.83027 673.292 8.83027C674.047 8.83027 674.77 8.53045 675.304 7.99675C675.838 7.46304 676.138 6.73919 676.138 5.98443C676.111 4.38851 674.861 3.08545 673.292 3.08545ZM707.255 11.7027L701.244 25.6656L694.835 11.7032H686.51V9.86804C686.51 7.68709 687.521 6.7828 689.595 6.7828C690.314 6.7956 691.028 6.89379 691.723 7.07532L692.654 3.75085C691.333 3.31126 689.949 3.09557 688.557 3.11268C684.514 3.11268 682.334 5.7457 682.334 9.57553V11.7032L678.77 11.9957V15.3476H682.334V32.9003H686.509V15.3203H691.962L699.195 30.4004C698.584 31.7302 697.839 33.2197 696.669 34.124C695.631 34.9484 694.302 35.0281 693.025 34.7622L692.041 38.1932C693.929 38.8847 696.296 38.8048 698.052 37.8474C699.966 36.7836 701.242 34.7889 702.094 32.8208L711.67 11.6233H707.229V11.7032L707.255 11.7027ZM657.387 29.7354C653.903 29.7088 650.978 26.8364 650.978 22.2885C650.978 17.714 653.877 14.8681 657.387 14.815C660.871 14.8416 663.797 17.714 663.797 22.2885C663.797 26.8364 660.871 29.7354 657.387 29.7354ZM657.387 11.1181C656.189 11.1066 655.001 11.3334 653.891 11.7855C652.782 12.2375 651.773 12.9057 650.924 13.7512V3.69772L647.015 4.04353V32.9269H650.924V30.8791C651.773 31.7245 652.782 32.3927 653.891 32.8447C655.001 33.2967 656.189 33.5236 657.387 33.5121C663.292 33.4855 667.813 28.8311 667.813 22.3151C667.813 15.7991 663.264 11.1711 657.387 11.1181ZM611.722 14.8681C614.009 14.8947 616.084 16.2512 617.201 18.3262L620.579 16.2251C619.691 14.6627 618.402 13.3656 616.845 12.4679C615.288 11.5702 613.519 11.1044 611.722 11.1186C605.792 11.1452 601.297 15.7996 601.297 22.3156C601.297 28.8316 605.791 33.4594 611.722 33.5126C613.521 33.5324 615.291 33.069 616.849 32.1708C618.407 31.2725 619.695 29.9723 620.579 28.4061L617.201 26.305C616.084 28.4061 614.01 29.7631 611.722 29.7631C608.238 29.7354 605.312 26.863 605.312 22.2885C605.312 17.7141 608.238 14.8947 611.722 14.8681ZM632.6 29.7354C629.116 29.7088 626.19 26.8364 626.19 22.2885C626.19 17.714 629.089 14.8681 632.6 14.815C636.084 14.8416 639.009 17.714 639.009 22.2885C638.983 26.8364 636.084 29.7354 632.6 29.7354ZM639.062 13.7512C638.214 12.9057 637.205 12.2375 636.096 11.7855C634.986 11.3334 633.798 11.1066 632.6 11.1181C626.695 11.1447 622.174 15.7991 622.174 22.3151C622.174 28.8311 626.668 33.4589 632.6 33.5121C633.798 33.5236 634.986 33.2967 636.096 32.8447C637.205 32.3927 638.214 31.7245 639.062 30.8791V32.9269H642.972V11.6766L639.062 12.0224V13.7512ZM566.375 30.2409L574.194 38.1665L582.013 30.2409C582.353 29.8995 582.757 29.6286 583.202 29.4438C583.647 29.2589 584.124 29.1638 584.606 29.1638C585.088 29.1638 585.565 29.2589 586.01 29.4438C586.455 29.6286 586.859 29.8995 587.199 30.2409C587.89 30.9434 588.276 31.889 588.276 32.8739C588.276 33.8588 587.89 34.8044 587.199 35.5069L574.22 48.672L561.189 35.5068C557.746 31.9896 555.817 27.2637 555.817 22.3417C555.817 12.0756 564.035 3.72428 574.168 3.72428C576.585 3.72722 578.977 4.21075 581.205 5.14676C583.433 6.08277 585.453 7.45256 587.147 9.17642C587.837 9.87895 588.224 10.8245 588.224 11.8094C588.224 12.7944 587.837 13.7399 587.147 14.4425C586.807 14.7838 586.403 15.0547 585.958 15.2396C585.513 15.4244 585.036 15.5196 584.554 15.5196C584.072 15.5196 583.595 15.4244 583.15 15.2396C582.705 15.0547 582.301 14.7838 581.961 14.4425C580.94 13.4048 579.723 12.5811 578.38 12.0194C577.038 11.4577 575.597 11.1693 574.141 11.1711C568.051 11.1711 563.104 16.1712 563.104 22.3681C563.135 25.3167 564.307 28.1386 566.375 30.2407V30.2409ZM574.168 14.8681C575.133 14.8728 576.088 15.0678 576.978 15.442C577.868 15.8163 578.676 16.3624 579.354 17.0491C580.034 17.7378 580.843 18.2846 581.736 18.6579C582.628 19.0311 583.586 19.2233 584.554 19.2233C585.521 19.2233 586.479 19.0311 587.372 18.6579C588.264 18.2846 589.074 17.7378 589.753 17.0491C591.122 15.6378 591.888 13.7491 591.888 11.783C591.888 9.81702 591.122 7.92825 589.753 6.51701C587.712 4.45839 585.285 2.82312 582.61 1.70505C579.936 0.586975 577.067 0.00812095 574.168 0.00170904C562.013 0.000873742 552.12 10.0017 552.12 22.3417C552.108 28.2537 554.431 33.9315 558.583 38.1398L574.168 53.9382L589.753 38.1401C591.122 36.7289 591.888 34.8401 591.888 32.8741C591.888 30.908 591.122 29.0193 589.753 27.608C589.074 26.9193 588.264 26.3725 587.372 25.9993C586.479 25.626 585.521 25.4338 584.554 25.4338C583.586 25.4338 582.628 25.626 581.736 25.9993C580.843 26.3725 580.034 26.9193 579.354 27.608L574.168 32.9006L568.982 27.608C567.61 26.1993 566.846 24.3083 566.854 22.342C566.837 21.3693 567.013 20.4029 567.373 19.4989C567.732 18.5949 568.268 17.7713 568.948 17.076C569.629 16.3807 570.441 15.8274 571.337 15.4484C572.233 15.0694 573.195 14.8722 574.168 14.8681Z" fill="white"/>
</g>
<path d="M488.348 30.4828C486.894 33.145 484.507 36.2181 482.329 36.7312C482.169 36.8128 481.989 36.8482 481.809 36.8333C481.082 36.9354 480.448 36.6291 479.836 36.116C478.474 34.7729 477.865 32.0194 477.865 30.5849C477.968 28.6373 478.591 25.771 479.226 23.7213C479.476 22.9158 479.784 22.1286 480.146 21.3654C478.899 21.9806 477.239 22.5958 475.79 22.7086C475.334 22.7309 474.877 22.6966 474.429 22.6065C474.163 24.0341 473.78 25.4382 473.286 26.8052C471.212 32.2343 467.681 36.9461 465.5 37.3544C464.36 37.5613 462.699 36.1268 462.076 33.5667C460.622 35.7158 458.755 37.8648 456.887 38.0717H456.781C456.105 38.1587 455.418 38.0935 454.771 37.8809C454.124 37.6682 453.534 37.3138 453.046 36.844C451.799 35.5009 451.282 33.2578 451.282 30.2867C452.006 23.3238 459.792 17.7926 464.67 17.4837H464.983C468.928 17.3816 469.548 19.6327 469.654 20.2506C469.758 21.172 469.445 21.9913 468.838 22.1955C468.628 22.1955 468.214 22.3997 467.694 22.6065C466.554 23.1169 465.1 23.63 464.27 23.7321C463.853 23.7321 463.647 23.7321 463.453 23.5279C463.35 23.5279 463.246 23.3238 463.246 23.1169C463.14 22.7086 463.453 22.311 463.97 21.5803C464.284 21.172 465.217 19.9417 465.01 19.6354C464.74 19.5614 464.46 19.527 464.18 19.5333C463.97 19.5333 463.764 19.6354 463.453 19.6354C459.914 20.2506 456.498 29.3653 456.92 33.873C457.334 37.2524 459.825 34.1792 461.382 31.8233C461.303 29.6383 461.842 27.4747 462.939 25.5749C463.355 24.9624 465.326 24.4493 466.26 24.3472C466.382 24.2659 466.53 24.2297 466.676 24.2452C466.987 24.2452 467.3 24.1431 467.61 24.1431C467.811 24.0891 468.022 24.089 468.223 24.1429C468.423 24.1967 468.606 24.3025 468.751 24.4493C468.96 24.6535 468.96 24.9624 468.857 25.3707C467.61 28.6481 466.156 33.5667 466.26 34.6923C467.3 33.8864 470.724 28.1377 472.488 21.5803C472.385 21.2741 472.281 20.9678 472.178 20.5568C471.761 18.0988 472.905 16.4602 473.942 15.6409C474.334 15.3633 474.751 15.1231 475.189 14.9236L475.292 14.8215C475.706 14.6174 476.433 14.3084 476.953 14.3084C477.166 14.2925 477.38 14.3275 477.576 14.4105C478.393 14.9236 478.393 15.845 478.393 16.1539C478.27 17.5878 477.769 18.965 476.939 20.1485C476.939 20.2506 476.836 20.2506 476.836 20.3527H476.939C477.456 20.3527 478.287 20.0437 478.807 19.8396C480.149 19.2858 481.327 18.405 482.231 17.2795L482.441 17.0754C482.697 16.7506 483.014 16.477 483.374 16.2695C483.571 16.1412 483.793 16.0563 484.025 16.0206C484.258 15.9849 484.495 15.9992 484.722 16.0626C485.042 16.2486 485.325 16.4918 485.555 16.7799L485.658 16.8819C486.176 17.6878 486.279 18.8295 486.072 20.5703C485.969 21.9134 485.255 24.1565 484.515 26.6145C483.698 29.4808 482.854 32.4519 482.751 33.8864C483.478 33.4754 485.035 31.9415 485.969 30.3001C488.459 26.1014 489.29 22.9262 489.29 22.9262C489.287 22.9003 489.287 22.8742 489.29 22.8483C489.295 22.8128 489.307 22.7787 489.325 22.7479C489.344 22.7172 489.368 22.6904 489.398 22.6691C489.427 22.6478 489.46 22.6325 489.495 22.6241C489.53 22.6156 489.567 22.6142 489.603 22.6199C489.794 22.5763 489.994 22.5901 490.178 22.6595C490.361 22.7289 490.519 22.8507 490.632 23.0095C491.669 24.5407 488.451 30.276 488.348 30.4828Z" fill="white"/>
<path d="M491.151 42.4665C489.281 39.5975 484.618 39.2912 482.742 39.2912C481.842 39.2795 480.942 39.3136 480.045 39.3933C475.787 39.6995 469.973 40.6236 463.747 41.5424C456.688 42.6679 449.319 43.7962 443.3 44.2045C441.732 44.3227 440.321 44.3818 439.067 44.3818C434.924 44.3818 432.493 43.7451 431.777 42.5659C431.363 41.8495 431.571 40.8251 432.401 39.4927C432.457 39.4381 432.494 39.3662 432.504 39.2885C432.564 39.0252 432.568 38.7524 432.514 38.4877C432.461 38.2231 432.351 37.9724 432.194 37.752C432.044 37.6073 431.864 37.4958 431.667 37.425C431.47 37.3541 431.26 37.3255 431.05 37.3409C429.39 37.4457 427.002 39.5948 426.899 41.3382C426.692 42.9769 427.002 44.2932 427.626 45.3328L427.522 45.4348C426.589 46.9714 425.549 48.1991 424.512 49.6336C424.305 49.9398 423.992 50.2487 423.785 50.555C423.474 50.8639 423.371 51.0681 423.265 51.0681C423.058 50.7591 422.748 49.3273 423.992 42.3617C425.439 33.8081 427.45 25.3568 430.013 17.0619C431.514 16.7849 432.976 16.334 434.369 15.7187C434.759 15.5675 435.14 15.3963 435.512 15.2056C433.642 22.2733 431.048 33.4377 434.475 37.6391C435.409 38.8668 436.86 39.3799 438.626 39.2778C441.482 39.0709 444.231 37.1287 446.436 34.3994C448.674 31.5982 450.228 28.3257 450.977 24.8361C451.29 23.4016 451.184 21.1478 449.836 19.7133C448.903 18.6898 447.552 18.2788 445.995 18.5877C443.818 18.996 440.91 21.5427 438.626 25.1423C440.287 17.5615 443.711 7.31856 444.855 3.735C445.062 3.22191 445.165 2.81359 445.268 2.60674C445.372 2.19842 445.475 1.68533 445.268 1.27701C445.042 1.07629 444.745 0.970325 444.441 0.981517C444.054 1.00895 443.672 1.0774 443.3 1.18568C442.885 1.28955 442.366 1.39253 441.743 1.49461C439.565 1.80085 439.356 2.31394 438.939 3.43951V3.54159C437.799 6.82159 437.382 8.15132 436.968 9.98877C436.814 10.6858 436.605 11.3701 436.345 12.0358C436.206 12.6263 436.032 13.2084 435.825 13.7792C435.411 13.6744 434.685 13.7792 433.438 13.7792C432.604 13.8043 431.773 13.8724 430.947 13.9833C431.777 11.5253 432.607 9.06736 433.541 6.71145C433.586 6.61009 433.601 6.49792 433.582 6.38865C433.564 6.27939 433.514 6.17779 433.438 6.09628C433.231 5.78736 432.814 5.88944 432.711 5.88944C432.36 5.92882 432.013 5.99803 431.674 6.09628C431.257 6.19836 430.74 6.30044 430.22 6.40252C430.013 6.40252 429.806 6.5046 429.493 6.5046C428.353 6.60668 427.106 6.81353 426.899 7.9391C426.482 9.98877 425.965 12.1378 425.342 14.5985C424.403 14.6507 423.468 14.7529 422.541 14.9047C420.877 15.1089 420.363 15.5199 420.047 16.1324V16.3392C420.047 16.8496 420.047 17.2607 420.36 17.5669C420.774 17.9779 421.604 17.9779 423.992 17.7737H424.612C424.302 19.1035 423.886 20.4359 423.575 21.6662L421.397 30.2625C420.474 31.8067 419.433 33.2795 418.283 34.6681C417.929 35.137 417.549 35.5855 417.143 36.0112C415.999 37.3544 415.169 38.1603 414.548 38.3671C413.925 38.4692 414.028 36.3175 414.235 35.0898C414.652 32.9407 415.792 30.378 416.519 28.7393C417.039 27.3048 417.556 26.1766 417.66 25.1531C417.973 23.004 417.869 21.5668 417.246 20.9544C416.83 20.5433 416.312 20.4413 415.585 20.6454C415.482 20.6454 415.272 20.5433 415.169 20.5433C414.235 20.6454 412.575 21.8865 410.813 23.5144C410.293 23.9227 409.67 24.4358 409.567 24.5379C408.633 24.8468 408.323 24.8468 408.113 24.8468C408.121 24.7673 408.159 24.6936 408.219 24.64C409.153 22.8993 409.049 20.5433 408.426 19.5199C408.329 19.3233 408.183 19.1544 408.001 19.0289C407.82 18.9035 407.609 18.8256 407.389 18.8026C406.766 18.8026 404.688 19.3157 403.651 20.9517C402.924 22.0772 402.821 23.5117 403.444 25.1504C401.784 32.4223 398.046 38.6707 396.911 39.5921C396.808 39.0817 396.911 37.7493 397.224 36.7258C398.041 33.7547 398.988 30.2786 399.508 28.3256C399.715 27.5197 399.922 26.8911 399.922 26.7891C400.135 25.9604 400.024 25.0828 399.612 24.3311C399.092 23.4097 398.054 22.3835 395.46 22.3835H395.147C390.269 22.6924 382.483 28.2236 381.757 35.1892V35.2913C381.757 35.3934 381.136 36.2127 380.926 36.6344C379.889 38.2731 378.125 40.7311 377.191 41.2415H377.088C376.982 41.2415 376.878 41.1394 376.775 40.8332C376.568 40.0138 376.878 38.6841 377.088 37.8621C377.295 36.8386 377.502 35.8124 377.812 34.6869C377.918 34.2785 378.022 33.881 378.125 33.5613C378.435 32.3309 378.852 30.9985 379.059 29.7709C379.579 27.106 379.369 25.2632 378.642 24.3418C378.469 24.1169 378.251 23.9294 378.001 23.7908C377.752 23.6522 377.476 23.5655 377.191 23.5359C375.531 23.5359 372.727 25.1746 370.133 28.7608C370.34 26.9153 370.133 25.5829 369.509 24.8683C369.348 24.637 369.131 24.4498 368.876 24.3243C368.622 24.1988 368.34 24.1392 368.056 24.1511C366.708 24.1511 364.735 25.2767 362.867 27.2242C361.62 28.4519 360.376 30.7165 359.328 32.7554C359.848 31.012 360.368 29.3733 360.782 28.1457C361.096 27.2251 361.304 26.61 361.405 26.3001C361.481 26.0242 361.444 25.73 361.302 25.4808C361.198 25.2767 360.678 24.6749 358.084 24.8683H357.981C356.32 24.9704 355.282 25.2775 354.867 25.7897C354.661 26.0085 354.549 26.2972 354.553 26.5956C354.657 27.517 353.933 32.1268 353.309 36.2234C352.789 39.3987 352.376 42.3698 352.27 43.8042C352.27 44.3147 352.27 44.7257 352.479 45.0319C352.651 45.178 352.874 45.2513 353.1 45.2361C353.247 45.2527 353.394 45.2165 353.516 45.134H353.62C354.867 44.9298 355.798 44.6236 356.32 44.2126C356.631 43.9063 356.734 43.4067 356.837 42.8694C356.941 42.3828 357.08 41.9043 357.254 41.4376C357.357 41.2307 357.357 41.0266 357.461 40.9245C357.668 40.3093 359.432 36.1106 360.159 34.7782L360.368 34.3699C360.989 33.2416 361.612 32.014 362.236 30.9878C362.755 30.1819 363.273 29.145 364.103 28.4277C364.375 28.2424 364.647 28.0731 364.92 27.9146H365.336C365.646 28.3256 364.816 30.4774 364.193 32.014C363.676 33.4458 363.052 34.9689 362.742 36.5189C361.702 40.8171 361.702 42.6652 362.742 43.4846C363.059 43.7532 363.464 43.8992 363.882 43.8956C365.244 43.7935 366.477 41.948 368.347 36.8279C368.45 36.6237 368.45 36.4168 368.554 36.2127C370.732 31.603 372.909 27.3021 374.469 27.2001H374.679C374.886 27.7105 374.366 29.145 373.849 30.3753C373.344 31.6439 372.933 32.9465 372.618 34.2732C372.098 36.5243 371.371 40.5189 372.928 42.5685C373.21 42.9594 373.584 43.2761 374.018 43.4907C374.452 43.7052 374.934 43.8111 375.419 43.7989C378.64 43.901 380.714 40.2126 381.751 37.5505C381.856 39.4954 382.375 40.9281 383.308 41.8486C383.797 42.3185 384.387 42.6735 385.034 42.887C385.681 43.1005 386.369 43.167 387.046 43.0816H387.149C389.019 42.8748 390.887 40.7257 392.341 38.574C392.961 41.134 394.624 42.5685 395.765 42.3644C397.943 41.9534 401.482 37.2416 403.551 31.8125C404.119 30.2079 404.569 28.565 404.898 26.8965C405.603 27.2575 406.402 27.4007 407.19 27.3075C408.437 27.2054 409.994 26.6923 411.546 25.873C411.026 26.8965 410.612 27.8179 410.506 28.4331C409.782 30.4828 409.055 33.3491 409.055 35.2966C409.055 36.6398 409.676 39.2912 411.129 40.6236C411.856 41.3409 412.686 41.6471 413.517 41.545H413.598C413.751 41.5441 413.901 41.5083 414.037 41.4403C416.114 40.9272 418.291 38.6734 420.055 36.3175C419.642 38.1603 419.331 39.9037 419.018 41.7465C417.981 47.4818 418.291 51.1702 419.745 52.8088C420.679 53.9371 422.029 53.9371 422.549 53.9371H422.756C425.454 53.7302 427.217 50.2487 428.472 47.8928C428.552 47.7087 428.656 47.5361 428.783 47.3797C428.783 47.2777 428.992 47.0735 429.096 46.8693C430.653 47.9949 433.04 48.508 436.155 48.3012C436.401 48.3169 436.649 48.2822 436.881 48.1991C446.221 47.2777 452.553 46.3563 460.02 45.3328C463.445 44.8197 466.973 44.3066 471.021 43.7962C472.145 43.5934 473.286 43.4909 474.429 43.4899C480.448 43.0816 487.923 43.6968 489.374 49.4321V49.5342C489.48 49.9425 489.687 50.5577 490.19 50.4556C490.607 50.4556 490.814 50.0473 491.127 49.33C491.23 49.2279 491.23 49.0211 491.334 48.919C492.292 46.2569 492.292 44.1051 491.151 42.4665ZM437.799 30.7997C438.836 28.8548 439.77 27.1114 440.807 25.6796C443.091 22.3996 444.131 21.9913 444.441 21.9913C444.497 21.9845 444.554 21.9901 444.608 22.0078C444.661 22.0254 444.71 22.0547 444.751 22.0934C445.168 22.5044 445.271 23.732 445.064 25.1665C444.751 27.4203 443.3 31.2107 441.743 33.975C441.231 35.0167 440.527 35.955 439.666 36.7419C438.109 38.0716 437.695 37.0481 437.589 35.2053C437.486 34.1684 437.589 32.8387 437.799 30.7997ZM395.332 25.3707C395.125 25.6796 394.918 26.1766 394.608 26.7138C394.325 27.1388 394.082 27.5884 393.881 28.057C393.424 29.1221 393.042 30.2172 392.738 31.3343C392.428 32.3578 391.804 35.3289 391.804 36.8655C390.988 37.889 390.144 39.3235 388.897 39.9386C387.133 40.86 387.653 36.1482 387.756 35.3289C388.483 30.515 391.295 25.0859 393.985 24.5836C394.181 24.5002 394.395 24.4651 394.608 24.4815C395.125 24.3794 395.332 24.4815 395.438 24.6857C395.553 24.7448 395.553 24.9516 395.343 25.3599L395.332 25.3707Z" fill="white"/>
<path d="M354.137 12.5568C353.835 16.5622 351.23 19.1115 345.94 21.0591C345.734 21.0591 345.527 21.0591 345.423 20.8522C345.371 20.7769 345.344 20.688 345.344 20.597C345.344 20.506 345.371 20.4171 345.423 20.3418C347.811 17.677 348.224 15.9362 348.537 14.3997C349.055 11.7375 348.434 10.714 347.498 9.99677C346.564 9.3816 345.11 9.17744 343.036 9.27952H342.829C342.723 9.27952 335.874 9.89469 334.935 16.0383C334.311 19.9308 336.075 21.0591 339.5 23.106C340.912 23.8974 342.265 24.788 343.548 25.7709C349.362 29.9696 351.126 33.0428 349.986 37.0373C348.625 41.7491 343.452 47.4845 333.274 48.3038H332.961C325.489 48.8169 321.958 46.2568 320.507 44.6181C319.056 42.9795 318.43 40.8277 318.846 38.8801C320.507 31.1999 327.772 30.0717 329.95 29.9696H330.78C330.99 29.9696 331.197 30.0717 331.197 30.2758C331.208 30.3569 331.194 30.4393 331.157 30.5125C331.12 30.5857 331.062 30.6464 330.99 30.6869C330.887 30.7889 324.969 34.4773 325.175 40.6263C325.282 42.4691 325.695 43.6994 326.629 44.5188C327.772 45.5431 329.849 45.9524 332.858 45.7464H333.168C340.33 45.1312 344.057 40.3173 343.964 36.1186C343.872 31.9199 339.407 29.4565 335.868 27.4095L335.348 27.1006C331.924 25.0536 327.974 22.1846 328.29 16.7556C328.603 11.6354 335.052 7.33194 343.654 6.41053C348.739 5.89744 351.333 7.33193 352.58 8.55959C353.118 9.07414 353.537 9.69833 353.805 10.3887C354.074 11.079 354.188 11.8189 354.137 12.5568Z" fill="white"/>
<path d="M460.322 13.4783C454.51 10.201 460.528 5.8975 460.528 5.8975C462.605 4.47375 464.369 15.8342 460.322 13.4783Z" fill="white"/>
<path d="M472.988 7.42867C472.672 9.37009 471.589 11.1089 469.977 12.2641C468.523 13.2875 464.788 13.9027 464.165 13.4917C463.749 13.2875 463.852 12.8765 464.165 12.3661C463.722 12.4927 463.265 12.5613 462.804 12.5703C462.804 12.5703 462.181 7.1278 466.966 4.05464C468.836 3.43947 469.25 6.41055 468.006 8.97062C470.6 7.33196 473.195 6.51263 472.988 7.42867Z" fill="white"/>
<g clip-path="url(#clip1_120_1492)">
<path d="M76.5742 9.84521L81.4126 20.7639L86.222 9.96456H90.6475L95.4472 20.7639L100.27 9.84521H105.108L97.8664 26.1603H93.4248L88.4348 15.3707L83.4448 26.1603H79.0063L71.752 9.84521H76.5742Z" fill="white"/>
<path d="M131.477 9.84516C132.849 9.8122 134.181 10.3116 135.193 11.2386C135.681 11.6547 136.071 12.1736 136.334 12.758C136.598 13.3424 136.729 13.978 136.719 14.6191V21.3928C136.729 22.0321 136.597 22.6656 136.334 23.2483C136.071 23.831 135.682 24.3483 135.196 24.7636C134.184 25.6909 132.853 26.1903 131.48 26.157H118.71C117.34 26.1868 116.01 25.6878 114.997 24.7636C114.516 24.345 114.131 23.8267 113.87 23.2447C113.609 22.6626 113.477 22.0308 113.485 21.3928V14.6191C113.479 13.9804 113.612 13.3481 113.875 12.7661C114.138 12.184 114.524 11.6661 115.007 11.2483C116.016 10.3229 117.342 9.82051 118.71 9.84516H131.477ZM118.546 14.0384C118.35 14.2027 118.194 14.4089 118.089 14.6418C117.984 14.8746 117.933 15.1282 117.939 15.3835V20.6251C117.938 20.8816 117.992 21.1353 118.096 21.3694C118.201 21.6036 118.354 21.8128 118.546 21.9831C118.959 22.3417 119.489 22.5358 120.036 22.5282H130.171C130.718 22.5232 131.245 22.3257 131.661 21.9702C131.852 21.8018 132.004 21.5948 132.109 21.3629C132.213 21.131 132.267 20.8795 132.267 20.6251V15.3803C132.273 15.1237 132.222 14.869 132.117 14.6347C132.012 14.4004 131.856 14.1923 131.661 14.0255C131.465 13.834 131.232 13.686 130.975 13.5915C130.718 13.497 130.444 13.458 130.171 13.4772H120.036C119.763 13.4661 119.49 13.5097 119.234 13.6056C118.978 13.7014 118.744 13.8475 118.546 14.0352V14.0384Z" fill="white"/>
<path d="M163.695 9.84523C165.069 9.81025 166.404 10.3098 167.417 11.2387C167.904 11.6556 168.292 12.1747 168.555 12.7591C168.817 13.3434 168.948 13.9786 168.936 14.6191V21.3929C168.947 22.0324 168.816 22.6664 168.554 23.2496C168.291 23.8328 167.903 24.3508 167.417 24.7669C166.405 25.6945 165.074 26.194 163.701 26.1603H150.941C149.569 26.1909 148.238 25.6919 147.225 24.7669C146.741 24.3489 146.354 23.8305 146.092 23.2478C145.829 22.6651 145.696 22.0321 145.702 21.3929V14.6191C145.696 13.9805 145.83 13.3482 146.093 12.7661C146.355 12.1841 146.742 11.6662 147.225 11.2484C148.238 10.3236 149.569 9.82462 150.941 9.8549L163.695 9.84523ZM150.763 14.0385C150.568 14.2026 150.411 14.4088 150.306 14.6417C150.201 14.8746 150.15 15.1282 150.157 15.3836V20.6252C150.156 20.8817 150.209 21.1354 150.314 21.3696C150.418 21.6038 150.572 21.813 150.763 21.9832C151.176 22.3421 151.707 22.5362 152.254 22.5283H162.385C162.931 22.5228 163.458 22.3253 163.872 21.9703C164.063 21.8019 164.216 21.5949 164.32 21.363C164.425 21.1311 164.479 20.8796 164.479 20.6252V15.3804C164.484 15.1237 164.433 14.869 164.328 14.6347C164.223 14.4004 164.067 14.1924 163.872 14.0256C163.677 13.8344 163.444 13.6867 163.187 13.5922C162.931 13.4977 162.658 13.4585 162.385 13.4773H152.257C151.983 13.4657 151.71 13.5092 151.454 13.605C151.197 13.7008 150.962 13.8472 150.763 14.0353V14.0385Z" fill="white"/>
<path d="M199.269 9.84521V13.4772H190.815V26.1571H186.36V13.4772H177.919V9.84521H199.269Z" fill="white"/>
<path d="M228.381 9.84521V13.4772H212.698V16.1448H226.297V19.7156H212.698V22.5251H228.381V26.1571H208.243V9.84521H228.381Z" fill="white"/>
<path d="M253.378 9.84519C254.874 9.8133 256.324 10.3598 257.426 11.3709C257.958 11.8249 258.384 12.3895 258.674 13.0252C258.964 13.661 259.112 14.3525 259.107 15.0513C259.112 15.6956 258.987 16.3341 258.737 16.9281C258.487 17.5221 258.119 18.0589 257.656 18.5059C256.676 19.4646 255.398 20.0579 254.033 20.1865L259.346 26.1603H254.165L249.259 20.2413H241.815V26.1603H237.363V9.84519H253.378ZM241.815 16.6448H252.949C253.178 16.6564 253.406 16.6221 253.621 16.544C253.836 16.4659 254.033 16.3455 254.201 16.19C254.361 16.0471 254.488 15.8707 254.572 15.6733C254.656 15.476 254.696 15.2625 254.688 15.0481C254.7 14.8331 254.663 14.6182 254.578 14.4201C254.494 14.222 254.365 14.0461 254.201 13.9062C254.037 13.7457 253.84 13.6232 253.624 13.5474C253.408 13.4716 253.177 13.4443 252.949 13.4675H241.815V16.6448Z" fill="white"/>
<path d="M81.761 33.7405L81.7029 33.6502H80.8546L80.8127 33.7147L71.752 48.0203H72.7003L74.9292 44.5205H87.6671L89.8702 48.0203H90.8379L81.761 33.7405ZM75.3421 43.8657L81.2933 34.4727L87.2284 43.8625L75.3421 43.8657Z" fill="white"/>
<path d="M100.243 48.0203V33.6502H114.339C115.175 33.6367 116 33.8342 116.739 34.2243C117.433 34.5739 118.019 35.1044 118.436 35.7597C118.829 36.3639 119.036 37.0708 119.029 37.7919C119.029 38.5241 118.832 39.6982 118.429 40.3272C118.018 40.9788 117.437 41.5062 116.749 41.8529C116.006 42.2387 115.179 42.4338 114.342 42.4206H101.23V48.0235L100.243 48.0203ZM101.233 41.7626H113.978C114.945 41.7271 116.307 41.4174 116.968 40.8465L117.003 40.8143C117.72 40.1691 118.097 38.7757 118.097 37.7919C118.108 37.3164 118.015 36.8442 117.825 36.4084C117.634 35.9726 117.351 35.5839 116.994 35.2694C116.329 34.6533 114.949 34.3308 113.962 34.3308H101.23L101.233 41.7626Z" fill="white"/>
<path d="M128.587 48.0203V33.6502H142.683C143.518 33.6367 144.344 33.8342 145.083 34.2243C145.776 34.5739 146.362 35.1044 146.779 35.7597C147.173 36.3638 147.38 37.0708 147.373 37.7919C147.373 38.5241 147.176 39.6982 146.773 40.3272C146.361 40.9788 145.781 41.5062 145.092 41.8529C144.35 42.2387 143.523 42.4338 142.686 42.4206H129.574V48.0235L128.587 48.0203ZM129.577 41.7626H142.322C143.289 41.7271 144.65 41.4174 145.312 40.8465L145.347 40.8143C146.063 40.1691 146.441 38.7757 146.441 37.7919C146.452 37.3161 146.358 36.8438 146.167 36.408C145.976 35.9722 145.692 35.5836 145.334 35.2694C144.67 34.6533 143.289 34.3308 142.302 34.3308H129.574L129.577 41.7626Z" fill="white"/>
<path d="M166.79 33.7405L166.732 33.6502H165.884L165.842 33.7147L156.771 48.0203H157.739L159.968 44.5205H172.706L174.909 48.0203H175.877L166.79 33.7405ZM160.371 43.8657L166.323 34.476L172.254 43.8625L160.371 43.8657Z" fill="white"/>
<path d="M203.466 35.7597C203.049 35.1044 202.463 34.5739 201.769 34.2243C201.03 33.8342 200.205 33.6367 199.369 33.6502H185.273V48.0203H186.264V42.4174H196.934L201.479 48.0203H202.469L197.924 42.4174H199.369C200.206 42.4305 201.033 42.2354 201.776 41.8497C202.464 41.5029 203.045 40.9755 203.456 40.324C203.859 39.6982 204.056 38.5241 204.056 37.7886C204.063 37.069 203.858 36.3633 203.466 35.7597V35.7597ZM202.037 40.811L202.001 40.8433C201.34 41.4142 199.992 41.7239 199.011 41.7594H186.264V34.3405H198.992C199.976 34.3405 201.36 34.663 202.024 35.2791C202.381 35.5932 202.666 35.9819 202.857 36.4177C203.048 36.8534 203.141 37.3258 203.13 37.8015C203.127 38.7724 202.75 40.1498 202.037 40.811V40.811Z" fill="white"/>
<path d="M231.342 33.6502V34.3824H215.665V40.424H229.248V41.0917H215.665V47.2881H231.342V48.0203H214.675V33.6502H231.342Z" fill="white"/>
<path d="M242.68 33.6502V48.0203H259.346V47.2881H243.67V33.6502H242.68Z" fill="white"/>
<path d="M61.3234 15.6367C56.9666 10.9516 50.108 9.03394 43.8903 10.3048C39.7435 11.0593 36.1356 13.5101 33.1458 16.3973C32.3007 17.1918 30.1563 19.2339 28.012 21.4293C25.7089 23.7724 23.4055 26.2683 22.7133 27.4996C21.4369 30.1487 24.5796 33.4276 27.2517 32.0777C30.0031 30.4607 31.8866 27.7776 34.2125 25.6555C37.4688 22.6321 40.2199 18.6382 44.6393 17.2541C51.1518 15.3706 58.4642 20.2665 59.44 26.898C60.7447 33.825 54.5442 41.0126 47.4927 40.6552C44.0268 40.6552 40.9463 38.8056 38.5919 36.389C36.911 38.0971 35.1993 39.7747 33.4577 41.4209C36.096 43.934 39.1309 46.1126 42.6936 47.1222C50.0683 48.9885 58.5323 46.2429 63.031 40.0139C68.3636 32.9002 67.5695 21.9912 61.3234 15.6374V15.6367Z" fill="white"/>
<path d="M39.3349 25.7748C36.5835 27.3915 34.7001 30.0746 32.3741 32.1964C29.1178 35.22 26.3835 39.2137 21.9473 40.5981C15.4348 42.4815 8.12236 37.5854 7.14662 30.9539C5.84154 24.0272 12.0421 16.8399 19.0936 17.197C22.5598 17.197 25.6403 19.0465 27.9947 21.4632C29.6755 19.755 31.387 18.0774 33.1285 16.4312C30.4906 13.9182 27.4557 11.7396 23.893 10.73C16.5183 8.86363 8.0543 11.6093 3.55555 17.8382C-1.81669 24.9804 -0.982876 35.8952 5.25738 42.2319C9.6142 46.9177 16.4728 48.835 22.6905 47.5644C26.8431 46.8096 30.4455 44.3591 33.435 41.4716C34.2801 40.6774 36.4248 38.6353 38.5692 36.4396C40.8722 34.0969 43.1753 31.6006 43.8617 30.3697C45.1439 27.7034 42.0012 24.4243 39.3349 25.7745V25.7748Z" fill="white"/>
</g>
<defs>
<clipPath id="clip0_120_1492">
<rect width="159.55" height="53.937" fill="white" transform="translate(552.119)"/>
</clipPath>
<clipPath id="clip1_120_1492">
<rect width="259.346" height="38.2536" fill="white" transform="translate(0 9.80676)"/>
</clipPath>
</defs>
</svg>
